<mxfile host="app.diagrams.net" agent="Mozilla/5.0 (Windows NT 10.0; Win64; x64) AppleWebKit/537.36 (KHTML, like Gecko) Chrome/129.0.0.0 Safari/537.36" version="24.7.16">
  <diagram id="C5RBs43oDa-KdzZeNtuy" name="Page-1">
    <mxGraphModel dx="1863" dy="1754" grid="1" gridSize="10" guides="1" tooltips="1" connect="1" arrows="1" fold="1" page="1" pageScale="1" pageWidth="827" pageHeight="1169" math="0" shadow="0">
      <root>
        <mxCell id="WIyWlLk6GJQsqaUBKTNV-0" />
        <mxCell id="WIyWlLk6GJQsqaUBKTNV-1" parent="WIyWlLk6GJQsqaUBKTNV-0" />
        <mxCell id="592Dz0RFdlBVI4-PYO10-13" value="" style="edgeStyle=orthogonalEdgeStyle;rounded=0;orthogonalLoop=1;jettySize=auto;html=1;" parent="WIyWlLk6GJQsqaUBKTNV-1" source="WIyWlLk6GJQsqaUBKTNV-3" target="592Dz0RFdlBVI4-PYO10-8" edge="1">
          <mxGeometry relative="1" as="geometry" />
        </mxCell>
        <mxCell id="WIyWlLk6GJQsqaUBKTNV-3" value="Base, altura, Area" style="rounded=1;whiteSpace=wrap;html=1;fontSize=12;glass=0;strokeWidth=1;shadow=0;" parent="WIyWlLk6GJQsqaUBKTNV-1" vertex="1">
          <mxGeometry x="131" y="-890" width="120" height="50" as="geometry" />
        </mxCell>
        <mxCell id="592Dz0RFdlBVI4-PYO10-1" style="edgeStyle=orthogonalEdgeStyle;rounded=0;orthogonalLoop=1;jettySize=auto;html=1;entryX=0.5;entryY=0;entryDx=0;entryDy=0;" parent="WIyWlLk6GJQsqaUBKTNV-1" source="592Dz0RFdlBVI4-PYO10-0" target="WIyWlLk6GJQsqaUBKTNV-3" edge="1">
          <mxGeometry relative="1" as="geometry" />
        </mxCell>
        <mxCell id="592Dz0RFdlBVI4-PYO10-0" value="Inicio" style="ellipse;whiteSpace=wrap;html=1;" parent="WIyWlLk6GJQsqaUBKTNV-1" vertex="1">
          <mxGeometry x="131" y="-970" width="120" height="40" as="geometry" />
        </mxCell>
        <mxCell id="592Dz0RFdlBVI4-PYO10-10" value="" style="edgeStyle=orthogonalEdgeStyle;rounded=0;orthogonalLoop=1;jettySize=auto;html=1;" parent="WIyWlLk6GJQsqaUBKTNV-1" source="592Dz0RFdlBVI4-PYO10-8" target="592Dz0RFdlBVI4-PYO10-9" edge="1">
          <mxGeometry relative="1" as="geometry" />
        </mxCell>
        <mxCell id="592Dz0RFdlBVI4-PYO10-8" value="Ingreso de Base,&lt;div&gt;altura&lt;/div&gt;" style="shape=parallelogram;perimeter=parallelogramPerimeter;whiteSpace=wrap;html=1;fixedSize=1;" parent="WIyWlLk6GJQsqaUBKTNV-1" vertex="1">
          <mxGeometry x="131" y="-780" width="120" height="60" as="geometry" />
        </mxCell>
        <mxCell id="592Dz0RFdlBVI4-PYO10-16" value="" style="edgeStyle=orthogonalEdgeStyle;rounded=0;orthogonalLoop=1;jettySize=auto;html=1;" parent="WIyWlLk6GJQsqaUBKTNV-1" source="592Dz0RFdlBVI4-PYO10-9" target="592Dz0RFdlBVI4-PYO10-15" edge="1">
          <mxGeometry relative="1" as="geometry" />
        </mxCell>
        <mxCell id="592Dz0RFdlBVI4-PYO10-9" value="Área= Base*altura/2" style="rounded=0;whiteSpace=wrap;html=1;" parent="WIyWlLk6GJQsqaUBKTNV-1" vertex="1">
          <mxGeometry x="131" y="-680" width="120" height="50" as="geometry" />
        </mxCell>
        <mxCell id="592Dz0RFdlBVI4-PYO10-11" value="Fin" style="ellipse;whiteSpace=wrap;html=1;" parent="WIyWlLk6GJQsqaUBKTNV-1" vertex="1">
          <mxGeometry x="131" y="-490" width="120" height="40" as="geometry" />
        </mxCell>
        <mxCell id="592Dz0RFdlBVI4-PYO10-17" value="" style="edgeStyle=orthogonalEdgeStyle;rounded=0;orthogonalLoop=1;jettySize=auto;html=1;" parent="WIyWlLk6GJQsqaUBKTNV-1" source="592Dz0RFdlBVI4-PYO10-15" target="592Dz0RFdlBVI4-PYO10-11" edge="1">
          <mxGeometry relative="1" as="geometry" />
        </mxCell>
        <mxCell id="592Dz0RFdlBVI4-PYO10-15" value="Mostrar resultado" style="shape=parallelogram;perimeter=parallelogramPerimeter;whiteSpace=wrap;html=1;fixedSize=1;" parent="WIyWlLk6GJQsqaUBKTNV-1" vertex="1">
          <mxGeometry x="131" y="-600" width="120" height="60" as="geometry" />
        </mxCell>
        <mxCell id="592Dz0RFdlBVI4-PYO10-21" value="&lt;div&gt;Ejercici1&lt;/div&gt;Escribe un programa que calcule el área de un triangulo utilizando la fórmula del área donde el usuario debe ingresar la base y altura del triángulo" style="rounded=1;whiteSpace=wrap;html=1;" parent="WIyWlLk6GJQsqaUBKTNV-1" vertex="1">
          <mxGeometry x="121" y="-1130" width="160" height="150" as="geometry" />
        </mxCell>
        <mxCell id="592Dz0RFdlBVI4-PYO10-23" value="Crear un programa que determine si un numero ingresado por el usuario es par o impar" style="rounded=1;whiteSpace=wrap;html=1;" parent="WIyWlLk6GJQsqaUBKTNV-1" vertex="1">
          <mxGeometry x="325" y="-1130" width="190" height="150" as="geometry" />
        </mxCell>
        <mxCell id="592Dz0RFdlBVI4-PYO10-26" style="edgeStyle=orthogonalEdgeStyle;rounded=0;orthogonalLoop=1;jettySize=auto;html=1;exitX=0.5;exitY=1;exitDx=0;exitDy=0;" parent="WIyWlLk6GJQsqaUBKTNV-1" source="592Dz0RFdlBVI4-PYO10-24" target="592Dz0RFdlBVI4-PYO10-25" edge="1">
          <mxGeometry relative="1" as="geometry" />
        </mxCell>
        <mxCell id="592Dz0RFdlBVI4-PYO10-24" value="Inicio" style="ellipse;whiteSpace=wrap;html=1;" parent="WIyWlLk6GJQsqaUBKTNV-1" vertex="1">
          <mxGeometry x="360" y="-970" width="120" height="40" as="geometry" />
        </mxCell>
        <mxCell id="592Dz0RFdlBVI4-PYO10-29" style="edgeStyle=orthogonalEdgeStyle;rounded=0;orthogonalLoop=1;jettySize=auto;html=1;exitX=0.5;exitY=1;exitDx=0;exitDy=0;" parent="WIyWlLk6GJQsqaUBKTNV-1" source="592Dz0RFdlBVI4-PYO10-25" target="592Dz0RFdlBVI4-PYO10-27" edge="1">
          <mxGeometry relative="1" as="geometry" />
        </mxCell>
        <mxCell id="592Dz0RFdlBVI4-PYO10-25" value="numero" style="rounded=1;whiteSpace=wrap;html=1;fontSize=12;glass=0;strokeWidth=1;shadow=0;" parent="WIyWlLk6GJQsqaUBKTNV-1" vertex="1">
          <mxGeometry x="360" y="-890" width="120" height="50" as="geometry" />
        </mxCell>
        <mxCell id="592Dz0RFdlBVI4-PYO10-35" value="" style="edgeStyle=orthogonalEdgeStyle;rounded=0;orthogonalLoop=1;jettySize=auto;html=1;" parent="WIyWlLk6GJQsqaUBKTNV-1" source="592Dz0RFdlBVI4-PYO10-27" target="592Dz0RFdlBVI4-PYO10-33" edge="1">
          <mxGeometry relative="1" as="geometry" />
        </mxCell>
        <mxCell id="592Dz0RFdlBVI4-PYO10-27" value="Ingreso del&lt;div&gt;&amp;nbsp;numero&lt;/div&gt;" style="shape=parallelogram;perimeter=parallelogramPerimeter;whiteSpace=wrap;html=1;fixedSize=1;" parent="WIyWlLk6GJQsqaUBKTNV-1" vertex="1">
          <mxGeometry x="360" y="-810" width="120" height="60" as="geometry" />
        </mxCell>
        <mxCell id="592Dz0RFdlBVI4-PYO10-38" value="" style="edgeStyle=orthogonalEdgeStyle;rounded=0;orthogonalLoop=1;jettySize=auto;html=1;" parent="WIyWlLk6GJQsqaUBKTNV-1" source="592Dz0RFdlBVI4-PYO10-31" target="592Dz0RFdlBVI4-PYO10-32" edge="1">
          <mxGeometry relative="1" as="geometry" />
        </mxCell>
        <mxCell id="592Dz0RFdlBVI4-PYO10-39" value="Si" style="edgeLabel;html=1;align=center;verticalAlign=middle;resizable=0;points=[];" parent="592Dz0RFdlBVI4-PYO10-38" vertex="1" connectable="0">
          <mxGeometry x="-0.0302" y="3" relative="1" as="geometry">
            <mxPoint x="-1" as="offset" />
          </mxGeometry>
        </mxCell>
        <mxCell id="592Dz0RFdlBVI4-PYO10-41" value="" style="edgeStyle=orthogonalEdgeStyle;rounded=0;orthogonalLoop=1;jettySize=auto;html=1;" parent="WIyWlLk6GJQsqaUBKTNV-1" source="592Dz0RFdlBVI4-PYO10-31" target="592Dz0RFdlBVI4-PYO10-40" edge="1">
          <mxGeometry relative="1" as="geometry" />
        </mxCell>
        <mxCell id="592Dz0RFdlBVI4-PYO10-48" value="No" style="edgeLabel;html=1;align=center;verticalAlign=middle;resizable=0;points=[];" parent="592Dz0RFdlBVI4-PYO10-41" vertex="1" connectable="0">
          <mxGeometry x="-0.0407" y="-3" relative="1" as="geometry">
            <mxPoint as="offset" />
          </mxGeometry>
        </mxCell>
        <mxCell id="592Dz0RFdlBVI4-PYO10-31" value="Si residuo es 0" style="rhombus;whiteSpace=wrap;html=1;" parent="WIyWlLk6GJQsqaUBKTNV-1" vertex="1">
          <mxGeometry x="342.5" y="-630" width="155" height="110" as="geometry" />
        </mxCell>
        <mxCell id="592Dz0RFdlBVI4-PYO10-54" style="edgeStyle=orthogonalEdgeStyle;rounded=0;orthogonalLoop=1;jettySize=auto;html=1;" parent="WIyWlLk6GJQsqaUBKTNV-1" source="592Dz0RFdlBVI4-PYO10-32" edge="1">
          <mxGeometry relative="1" as="geometry">
            <mxPoint x="644.9999999999998" y="-330" as="targetPoint" />
          </mxGeometry>
        </mxCell>
        <mxCell id="592Dz0RFdlBVI4-PYO10-32" value="Es par" style="shape=parallelogram;perimeter=parallelogramPerimeter;whiteSpace=wrap;html=1;fixedSize=1;" parent="WIyWlLk6GJQsqaUBKTNV-1" vertex="1">
          <mxGeometry x="585" y="-605" width="120" height="60" as="geometry" />
        </mxCell>
        <mxCell id="592Dz0RFdlBVI4-PYO10-36" value="" style="edgeStyle=orthogonalEdgeStyle;rounded=0;orthogonalLoop=1;jettySize=auto;html=1;" parent="WIyWlLk6GJQsqaUBKTNV-1" source="592Dz0RFdlBVI4-PYO10-33" target="592Dz0RFdlBVI4-PYO10-31" edge="1">
          <mxGeometry relative="1" as="geometry" />
        </mxCell>
        <mxCell id="592Dz0RFdlBVI4-PYO10-33" value="numero%2==0" style="rounded=0;whiteSpace=wrap;html=1;" parent="WIyWlLk6GJQsqaUBKTNV-1" vertex="1">
          <mxGeometry x="360" y="-720" width="120" height="50" as="geometry" />
        </mxCell>
        <mxCell id="592Dz0RFdlBVI4-PYO10-43" value="" style="edgeStyle=orthogonalEdgeStyle;rounded=0;orthogonalLoop=1;jettySize=auto;html=1;" parent="WIyWlLk6GJQsqaUBKTNV-1" source="592Dz0RFdlBVI4-PYO10-40" edge="1">
          <mxGeometry relative="1" as="geometry">
            <mxPoint x="420" y="-360" as="targetPoint" />
          </mxGeometry>
        </mxCell>
        <mxCell id="5NWlZkQ-3YKYq24V9P-x-30" value="" style="edgeStyle=orthogonalEdgeStyle;rounded=0;orthogonalLoop=1;jettySize=auto;html=1;" parent="WIyWlLk6GJQsqaUBKTNV-1" source="592Dz0RFdlBVI4-PYO10-40" target="592Dz0RFdlBVI4-PYO10-44" edge="1">
          <mxGeometry relative="1" as="geometry" />
        </mxCell>
        <mxCell id="592Dz0RFdlBVI4-PYO10-40" value="Es impar" style="shape=parallelogram;perimeter=parallelogramPerimeter;whiteSpace=wrap;html=1;fixedSize=1;" parent="WIyWlLk6GJQsqaUBKTNV-1" vertex="1">
          <mxGeometry x="360" y="-460" width="120" height="60" as="geometry" />
        </mxCell>
        <mxCell id="592Dz0RFdlBVI4-PYO10-44" value="Fin" style="ellipse;whiteSpace=wrap;html=1;" parent="WIyWlLk6GJQsqaUBKTNV-1" vertex="1">
          <mxGeometry x="360" y="-360" width="120" height="40" as="geometry" />
        </mxCell>
        <mxCell id="592Dz0RFdlBVI4-PYO10-56" value="" style="endArrow=classic;startArrow=classic;html=1;rounded=0;" parent="WIyWlLk6GJQsqaUBKTNV-1" edge="1">
          <mxGeometry width="50" height="50" relative="1" as="geometry">
            <mxPoint x="480" y="-340.59000000000003" as="sourcePoint" />
            <mxPoint x="651" y="-340" as="targetPoint" />
          </mxGeometry>
        </mxCell>
        <mxCell id="592Dz0RFdlBVI4-PYO10-59" value="Crea un programa que determine si un numero ingresado por el usuario es positivo, negativo o cero" style="rounded=0;whiteSpace=wrap;html=1;" parent="WIyWlLk6GJQsqaUBKTNV-1" vertex="1">
          <mxGeometry x="101" y="-290" width="140" height="80" as="geometry" />
        </mxCell>
        <mxCell id="u67Y7Ix7UaVVkOzbMJXE-16" value="" style="edgeStyle=orthogonalEdgeStyle;rounded=0;orthogonalLoop=1;jettySize=auto;html=1;" edge="1" parent="WIyWlLk6GJQsqaUBKTNV-1" source="592Dz0RFdlBVI4-PYO10-60" target="u67Y7Ix7UaVVkOzbMJXE-15">
          <mxGeometry relative="1" as="geometry" />
        </mxCell>
        <mxCell id="592Dz0RFdlBVI4-PYO10-60" value="Inicio" style="ellipse;whiteSpace=wrap;html=1;" parent="WIyWlLk6GJQsqaUBKTNV-1" vertex="1">
          <mxGeometry x="114.5" y="-210" width="120" height="50" as="geometry" />
        </mxCell>
        <mxCell id="592Dz0RFdlBVI4-PYO10-61" style="edgeStyle=orthogonalEdgeStyle;rounded=0;orthogonalLoop=1;jettySize=auto;html=1;exitX=0.5;exitY=1;exitDx=0;exitDy=0;" parent="WIyWlLk6GJQsqaUBKTNV-1" source="592Dz0RFdlBVI4-PYO10-60" target="592Dz0RFdlBVI4-PYO10-60" edge="1">
          <mxGeometry relative="1" as="geometry" />
        </mxCell>
        <mxCell id="592Dz0RFdlBVI4-PYO10-62" value="numero" style="rounded=1;whiteSpace=wrap;html=1;fontSize=12;glass=0;strokeWidth=1;shadow=0;" parent="WIyWlLk6GJQsqaUBKTNV-1" vertex="1">
          <mxGeometry x="121" y="-130" width="120" height="50" as="geometry" />
        </mxCell>
        <mxCell id="592Dz0RFdlBVI4-PYO10-68" value="" style="edgeStyle=orthogonalEdgeStyle;rounded=0;orthogonalLoop=1;jettySize=auto;html=1;" parent="WIyWlLk6GJQsqaUBKTNV-1" source="592Dz0RFdlBVI4-PYO10-64" target="592Dz0RFdlBVI4-PYO10-67" edge="1">
          <mxGeometry relative="1" as="geometry" />
        </mxCell>
        <mxCell id="592Dz0RFdlBVI4-PYO10-69" value="SI" style="edgeLabel;html=1;align=center;verticalAlign=middle;resizable=0;points=[];" parent="592Dz0RFdlBVI4-PYO10-68" vertex="1" connectable="0">
          <mxGeometry x="-0.2881" y="1" relative="1" as="geometry">
            <mxPoint as="offset" />
          </mxGeometry>
        </mxCell>
        <mxCell id="592Dz0RFdlBVI4-PYO10-71" value="" style="edgeStyle=orthogonalEdgeStyle;rounded=0;orthogonalLoop=1;jettySize=auto;html=1;" parent="WIyWlLk6GJQsqaUBKTNV-1" source="592Dz0RFdlBVI4-PYO10-64" target="592Dz0RFdlBVI4-PYO10-70" edge="1">
          <mxGeometry relative="1" as="geometry" />
        </mxCell>
        <mxCell id="592Dz0RFdlBVI4-PYO10-89" value="No" style="edgeLabel;html=1;align=center;verticalAlign=middle;resizable=0;points=[];" parent="592Dz0RFdlBVI4-PYO10-71" vertex="1" connectable="0">
          <mxGeometry x="0.4622" relative="1" as="geometry">
            <mxPoint as="offset" />
          </mxGeometry>
        </mxCell>
        <mxCell id="592Dz0RFdlBVI4-PYO10-64" value="numero&amp;gt;=0" style="rhombus;whiteSpace=wrap;html=1;" parent="WIyWlLk6GJQsqaUBKTNV-1" vertex="1">
          <mxGeometry x="141" y="25" width="80" height="80" as="geometry" />
        </mxCell>
        <mxCell id="592Dz0RFdlBVI4-PYO10-73" value="" style="edgeStyle=orthogonalEdgeStyle;rounded=0;orthogonalLoop=1;jettySize=auto;html=1;" parent="WIyWlLk6GJQsqaUBKTNV-1" source="592Dz0RFdlBVI4-PYO10-67" target="592Dz0RFdlBVI4-PYO10-72" edge="1">
          <mxGeometry relative="1" as="geometry" />
        </mxCell>
        <mxCell id="592Dz0RFdlBVI4-PYO10-67" value="Es positivo" style="shape=parallelogram;perimeter=parallelogramPerimeter;whiteSpace=wrap;html=1;fixedSize=1;" parent="WIyWlLk6GJQsqaUBKTNV-1" vertex="1">
          <mxGeometry x="260" y="20" width="120" height="60" as="geometry" />
        </mxCell>
        <mxCell id="592Dz0RFdlBVI4-PYO10-82" style="edgeStyle=orthogonalEdgeStyle;rounded=0;orthogonalLoop=1;jettySize=auto;html=1;entryX=0;entryY=0.5;entryDx=0;entryDy=0;" parent="WIyWlLk6GJQsqaUBKTNV-1" source="592Dz0RFdlBVI4-PYO10-70" target="592Dz0RFdlBVI4-PYO10-81" edge="1">
          <mxGeometry relative="1" as="geometry" />
        </mxCell>
        <mxCell id="592Dz0RFdlBVI4-PYO10-70" value="Es negativo" style="shape=parallelogram;perimeter=parallelogramPerimeter;whiteSpace=wrap;html=1;fixedSize=1;" parent="WIyWlLk6GJQsqaUBKTNV-1" vertex="1">
          <mxGeometry y="25" width="119" height="50" as="geometry" />
        </mxCell>
        <mxCell id="592Dz0RFdlBVI4-PYO10-75" value="" style="edgeStyle=orthogonalEdgeStyle;rounded=0;orthogonalLoop=1;jettySize=auto;html=1;" parent="WIyWlLk6GJQsqaUBKTNV-1" source="592Dz0RFdlBVI4-PYO10-72" target="592Dz0RFdlBVI4-PYO10-74" edge="1">
          <mxGeometry relative="1" as="geometry" />
        </mxCell>
        <mxCell id="592Dz0RFdlBVI4-PYO10-76" value="Si" style="edgeLabel;html=1;align=center;verticalAlign=middle;resizable=0;points=[];" parent="592Dz0RFdlBVI4-PYO10-75" vertex="1" connectable="0">
          <mxGeometry x="0.3375" y="-2" relative="1" as="geometry">
            <mxPoint as="offset" />
          </mxGeometry>
        </mxCell>
        <mxCell id="592Dz0RFdlBVI4-PYO10-72" value="numero==0" style="rhombus;whiteSpace=wrap;html=1;" parent="WIyWlLk6GJQsqaUBKTNV-1" vertex="1">
          <mxGeometry x="290" y="110" width="80" height="80" as="geometry" />
        </mxCell>
        <mxCell id="592Dz0RFdlBVI4-PYO10-87" style="edgeStyle=orthogonalEdgeStyle;rounded=0;orthogonalLoop=1;jettySize=auto;html=1;" parent="WIyWlLk6GJQsqaUBKTNV-1" source="592Dz0RFdlBVI4-PYO10-74" target="592Dz0RFdlBVI4-PYO10-81" edge="1">
          <mxGeometry relative="1" as="geometry" />
        </mxCell>
        <mxCell id="592Dz0RFdlBVI4-PYO10-74" value="El numero es 0" style="shape=parallelogram;perimeter=parallelogramPerimeter;whiteSpace=wrap;html=1;fixedSize=1;" parent="WIyWlLk6GJQsqaUBKTNV-1" vertex="1">
          <mxGeometry x="275" y="220" width="120" height="60" as="geometry" />
        </mxCell>
        <mxCell id="592Dz0RFdlBVI4-PYO10-81" value="Fin" style="ellipse;whiteSpace=wrap;html=1;" parent="WIyWlLk6GJQsqaUBKTNV-1" vertex="1">
          <mxGeometry x="119" y="230" width="120" height="40" as="geometry" />
        </mxCell>
        <mxCell id="592Dz0RFdlBVI4-PYO10-90" style="edgeStyle=orthogonalEdgeStyle;rounded=0;orthogonalLoop=1;jettySize=auto;html=1;exitX=0;exitY=0.5;exitDx=0;exitDy=0;entryX=0.456;entryY=0.004;entryDx=0;entryDy=0;entryPerimeter=0;" parent="WIyWlLk6GJQsqaUBKTNV-1" source="592Dz0RFdlBVI4-PYO10-72" target="592Dz0RFdlBVI4-PYO10-81" edge="1">
          <mxGeometry relative="1" as="geometry" />
        </mxCell>
        <mxCell id="592Dz0RFdlBVI4-PYO10-91" value="No" style="edgeLabel;html=1;align=center;verticalAlign=middle;resizable=0;points=[];" parent="592Dz0RFdlBVI4-PYO10-90" vertex="1" connectable="0">
          <mxGeometry x="0.4827" relative="1" as="geometry">
            <mxPoint as="offset" />
          </mxGeometry>
        </mxCell>
        <mxCell id="592Dz0RFdlBVI4-PYO10-92" value="Crea un programa que determine si un numero ingresado por el usuario es positivo, negativo o cero" style="rounded=0;whiteSpace=wrap;html=1;" parent="WIyWlLk6GJQsqaUBKTNV-1" vertex="1">
          <mxGeometry x="610" y="-320" width="140" height="80" as="geometry" />
        </mxCell>
        <mxCell id="592Dz0RFdlBVI4-PYO10-93" value="Inicio" style="ellipse;whiteSpace=wrap;html=1;" parent="WIyWlLk6GJQsqaUBKTNV-1" vertex="1">
          <mxGeometry x="620" y="-220" width="120" height="50" as="geometry" />
        </mxCell>
        <mxCell id="592Dz0RFdlBVI4-PYO10-99" style="edgeStyle=orthogonalEdgeStyle;rounded=0;orthogonalLoop=1;jettySize=auto;html=1;exitX=0.5;exitY=1;exitDx=0;exitDy=0;entryX=0.5;entryY=0;entryDx=0;entryDy=0;" parent="WIyWlLk6GJQsqaUBKTNV-1" target="592Dz0RFdlBVI4-PYO10-96" edge="1">
          <mxGeometry relative="1" as="geometry">
            <mxPoint x="680" y="-10" as="sourcePoint" />
          </mxGeometry>
        </mxCell>
        <mxCell id="592Dz0RFdlBVI4-PYO10-100" style="edgeStyle=orthogonalEdgeStyle;rounded=0;orthogonalLoop=1;jettySize=auto;html=1;exitX=0;exitY=0.5;exitDx=0;exitDy=0;entryX=1;entryY=0.5;entryDx=0;entryDy=0;" parent="WIyWlLk6GJQsqaUBKTNV-1" source="592Dz0RFdlBVI4-PYO10-96" target="592Dz0RFdlBVI4-PYO10-97" edge="1">
          <mxGeometry relative="1" as="geometry" />
        </mxCell>
        <mxCell id="592Dz0RFdlBVI4-PYO10-112" value="NO" style="edgeLabel;html=1;align=center;verticalAlign=middle;resizable=0;points=[];" parent="592Dz0RFdlBVI4-PYO10-100" vertex="1" connectable="0">
          <mxGeometry x="-0.2118" y="1" relative="1" as="geometry">
            <mxPoint as="offset" />
          </mxGeometry>
        </mxCell>
        <mxCell id="592Dz0RFdlBVI4-PYO10-101" style="edgeStyle=orthogonalEdgeStyle;rounded=0;orthogonalLoop=1;jettySize=auto;html=1;exitX=1;exitY=0.5;exitDx=0;exitDy=0;entryX=0;entryY=0.5;entryDx=0;entryDy=0;" parent="WIyWlLk6GJQsqaUBKTNV-1" source="592Dz0RFdlBVI4-PYO10-96" edge="1">
          <mxGeometry relative="1" as="geometry">
            <mxPoint x="810" y="80" as="targetPoint" />
          </mxGeometry>
        </mxCell>
        <mxCell id="592Dz0RFdlBVI4-PYO10-102" value="si" style="edgeLabel;html=1;align=center;verticalAlign=middle;resizable=0;points=[];" parent="592Dz0RFdlBVI4-PYO10-101" vertex="1" connectable="0">
          <mxGeometry x="0.0523" relative="1" as="geometry">
            <mxPoint as="offset" />
          </mxGeometry>
        </mxCell>
        <mxCell id="592Dz0RFdlBVI4-PYO10-96" value="numero 1 != numero2" style="rhombus;whiteSpace=wrap;html=1;" parent="WIyWlLk6GJQsqaUBKTNV-1" vertex="1">
          <mxGeometry x="640" y="40" width="80" height="80" as="geometry" />
        </mxCell>
        <mxCell id="592Dz0RFdlBVI4-PYO10-113" style="edgeStyle=orthogonalEdgeStyle;rounded=0;orthogonalLoop=1;jettySize=auto;html=1;exitX=0.5;exitY=1;exitDx=0;exitDy=0;entryX=0;entryY=0.5;entryDx=0;entryDy=0;" parent="WIyWlLk6GJQsqaUBKTNV-1" source="592Dz0RFdlBVI4-PYO10-97" target="592Dz0RFdlBVI4-PYO10-111" edge="1">
          <mxGeometry relative="1" as="geometry" />
        </mxCell>
        <mxCell id="592Dz0RFdlBVI4-PYO10-97" value="Los numero son iguales" style="shape=parallelogram;perimeter=parallelogramPerimeter;whiteSpace=wrap;html=1;fixedSize=1;" parent="WIyWlLk6GJQsqaUBKTNV-1" vertex="1">
          <mxGeometry x="450" y="50" width="150" height="60" as="geometry" />
        </mxCell>
        <mxCell id="592Dz0RFdlBVI4-PYO10-106" style="edgeStyle=orthogonalEdgeStyle;rounded=0;orthogonalLoop=1;jettySize=auto;html=1;exitX=1;exitY=0.5;exitDx=0;exitDy=0;entryX=0;entryY=0.5;entryDx=0;entryDy=0;" parent="WIyWlLk6GJQsqaUBKTNV-1" source="592Dz0RFdlBVI4-PYO10-103" target="592Dz0RFdlBVI4-PYO10-104" edge="1">
          <mxGeometry relative="1" as="geometry" />
        </mxCell>
        <mxCell id="592Dz0RFdlBVI4-PYO10-107" style="edgeStyle=orthogonalEdgeStyle;rounded=0;orthogonalLoop=1;jettySize=auto;html=1;exitX=0.5;exitY=1;exitDx=0;exitDy=0;entryX=0.5;entryY=0;entryDx=0;entryDy=0;" parent="WIyWlLk6GJQsqaUBKTNV-1" source="592Dz0RFdlBVI4-PYO10-103" target="592Dz0RFdlBVI4-PYO10-105" edge="1">
          <mxGeometry relative="1" as="geometry" />
        </mxCell>
        <mxCell id="592Dz0RFdlBVI4-PYO10-108" value="NO" style="edgeLabel;html=1;align=center;verticalAlign=middle;resizable=0;points=[];" parent="592Dz0RFdlBVI4-PYO10-107" vertex="1" connectable="0">
          <mxGeometry x="-0.098" y="1" relative="1" as="geometry">
            <mxPoint as="offset" />
          </mxGeometry>
        </mxCell>
        <mxCell id="592Dz0RFdlBVI4-PYO10-109" value="" style="edgeStyle=orthogonalEdgeStyle;rounded=0;orthogonalLoop=1;jettySize=auto;html=1;" parent="WIyWlLk6GJQsqaUBKTNV-1" source="592Dz0RFdlBVI4-PYO10-103" target="592Dz0RFdlBVI4-PYO10-104" edge="1">
          <mxGeometry relative="1" as="geometry" />
        </mxCell>
        <mxCell id="592Dz0RFdlBVI4-PYO10-110" value="SI" style="edgeLabel;html=1;align=center;verticalAlign=middle;resizable=0;points=[];" parent="592Dz0RFdlBVI4-PYO10-109" vertex="1" connectable="0">
          <mxGeometry x="-0.3361" y="2" relative="1" as="geometry">
            <mxPoint as="offset" />
          </mxGeometry>
        </mxCell>
        <mxCell id="592Dz0RFdlBVI4-PYO10-103" value="numero 1 &amp;gt;numero 2" style="rhombus;whiteSpace=wrap;html=1;" parent="WIyWlLk6GJQsqaUBKTNV-1" vertex="1">
          <mxGeometry x="810" y="40" width="80" height="80" as="geometry" />
        </mxCell>
        <mxCell id="592Dz0RFdlBVI4-PYO10-104" value="numero 1 es mayor" style="shape=parallelogram;perimeter=parallelogramPerimeter;whiteSpace=wrap;html=1;fixedSize=1;" parent="WIyWlLk6GJQsqaUBKTNV-1" vertex="1">
          <mxGeometry x="950" y="50" width="120" height="60" as="geometry" />
        </mxCell>
        <mxCell id="592Dz0RFdlBVI4-PYO10-105" value="numero 2 es mayor" style="shape=parallelogram;perimeter=parallelogramPerimeter;whiteSpace=wrap;html=1;fixedSize=1;" parent="WIyWlLk6GJQsqaUBKTNV-1" vertex="1">
          <mxGeometry x="790" y="180" width="120" height="60" as="geometry" />
        </mxCell>
        <mxCell id="592Dz0RFdlBVI4-PYO10-111" value="Fin" style="ellipse;whiteSpace=wrap;html=1;" parent="WIyWlLk6GJQsqaUBKTNV-1" vertex="1">
          <mxGeometry x="610" y="270" width="120" height="40" as="geometry" />
        </mxCell>
        <mxCell id="592Dz0RFdlBVI4-PYO10-114" style="edgeStyle=orthogonalEdgeStyle;rounded=0;orthogonalLoop=1;jettySize=auto;html=1;exitX=0.5;exitY=1;exitDx=0;exitDy=0;entryX=0.939;entryY=0.868;entryDx=0;entryDy=0;entryPerimeter=0;" parent="WIyWlLk6GJQsqaUBKTNV-1" source="592Dz0RFdlBVI4-PYO10-105" target="592Dz0RFdlBVI4-PYO10-111" edge="1">
          <mxGeometry relative="1" as="geometry">
            <Array as="points">
              <mxPoint x="850" y="300" />
              <mxPoint x="723" y="300" />
            </Array>
          </mxGeometry>
        </mxCell>
        <mxCell id="592Dz0RFdlBVI4-PYO10-115" style="edgeStyle=orthogonalEdgeStyle;rounded=0;orthogonalLoop=1;jettySize=auto;html=1;exitX=0.5;exitY=1;exitDx=0;exitDy=0;entryX=0.733;entryY=0.985;entryDx=0;entryDy=0;entryPerimeter=0;" parent="WIyWlLk6GJQsqaUBKTNV-1" source="592Dz0RFdlBVI4-PYO10-104" target="592Dz0RFdlBVI4-PYO10-111" edge="1">
          <mxGeometry relative="1" as="geometry" />
        </mxCell>
        <mxCell id="592Dz0RFdlBVI4-PYO10-119" style="edgeStyle=orthogonalEdgeStyle;rounded=0;orthogonalLoop=1;jettySize=auto;html=1;exitX=0.5;exitY=1;exitDx=0;exitDy=0;" parent="WIyWlLk6GJQsqaUBKTNV-1" edge="1">
          <mxGeometry relative="1" as="geometry">
            <mxPoint x="665" y="-80" as="sourcePoint" />
            <mxPoint x="680" y="-60" as="targetPoint" />
          </mxGeometry>
        </mxCell>
        <mxCell id="592Dz0RFdlBVI4-PYO10-118" style="edgeStyle=orthogonalEdgeStyle;rounded=0;orthogonalLoop=1;jettySize=auto;html=1;exitX=0.5;exitY=1;exitDx=0;exitDy=0;entryX=0.595;entryY=0.057;entryDx=0;entryDy=0;entryPerimeter=0;" parent="WIyWlLk6GJQsqaUBKTNV-1" source="592Dz0RFdlBVI4-PYO10-93" edge="1">
          <mxGeometry relative="1" as="geometry">
            <mxPoint x="683.0500000000002" y="-127.15000000000009" as="targetPoint" />
          </mxGeometry>
        </mxCell>
        <mxCell id="5NWlZkQ-3YKYq24V9P-x-0" value="Desarrolle un algoritmo que permita leer tres valores y almacenarlos en las variables AB YC respectivamente. El algoritmo debe imprimir cual es el mayor y cuál es el menor. Recuerde constatar que los tres valores introducidos por el teclado sean valores distintos. Presente un mensaje de alerta en caso que se detecte la introducción de valores iguales&amp;nbsp;" style="rounded=0;whiteSpace=wrap;html=1;" parent="WIyWlLk6GJQsqaUBKTNV-1" vertex="1">
          <mxGeometry x="1080" y="-1150" width="210" height="150" as="geometry" />
        </mxCell>
        <mxCell id="5NWlZkQ-3YKYq24V9P-x-4" value="" style="edgeStyle=orthogonalEdgeStyle;rounded=0;orthogonalLoop=1;jettySize=auto;html=1;" parent="WIyWlLk6GJQsqaUBKTNV-1" source="5NWlZkQ-3YKYq24V9P-x-1" target="5NWlZkQ-3YKYq24V9P-x-2" edge="1">
          <mxGeometry relative="1" as="geometry" />
        </mxCell>
        <mxCell id="5NWlZkQ-3YKYq24V9P-x-1" value="Inicio" style="ellipse;whiteSpace=wrap;html=1;" parent="WIyWlLk6GJQsqaUBKTNV-1" vertex="1">
          <mxGeometry x="1100" y="-960" width="120" height="40" as="geometry" />
        </mxCell>
        <mxCell id="5NWlZkQ-3YKYq24V9P-x-5" value="" style="edgeStyle=orthogonalEdgeStyle;rounded=0;orthogonalLoop=1;jettySize=auto;html=1;" parent="WIyWlLk6GJQsqaUBKTNV-1" source="5NWlZkQ-3YKYq24V9P-x-2" target="5NWlZkQ-3YKYq24V9P-x-3" edge="1">
          <mxGeometry relative="1" as="geometry" />
        </mxCell>
        <mxCell id="5NWlZkQ-3YKYq24V9P-x-2" value="Ingreso de A, ingreso de B, ingreso de C" style="shape=parallelogram;perimeter=parallelogramPerimeter;whiteSpace=wrap;html=1;fixedSize=1;" parent="WIyWlLk6GJQsqaUBKTNV-1" vertex="1">
          <mxGeometry x="1070" y="-880" width="180" height="80" as="geometry" />
        </mxCell>
        <mxCell id="5NWlZkQ-3YKYq24V9P-x-7" value="" style="edgeStyle=orthogonalEdgeStyle;rounded=0;orthogonalLoop=1;jettySize=auto;html=1;" parent="WIyWlLk6GJQsqaUBKTNV-1" source="5NWlZkQ-3YKYq24V9P-x-3" edge="1">
          <mxGeometry relative="1" as="geometry">
            <mxPoint x="1050.0476190476193" y="-705.1428571428571" as="targetPoint" />
          </mxGeometry>
        </mxCell>
        <mxCell id="5NWlZkQ-3YKYq24V9P-x-8" value="No" style="edgeLabel;html=1;align=center;verticalAlign=middle;resizable=0;points=[];" parent="5NWlZkQ-3YKYq24V9P-x-7" vertex="1" connectable="0">
          <mxGeometry x="0.059" y="1" relative="1" as="geometry">
            <mxPoint as="offset" />
          </mxGeometry>
        </mxCell>
        <mxCell id="5NWlZkQ-3YKYq24V9P-x-14" value="" style="edgeStyle=orthogonalEdgeStyle;rounded=0;orthogonalLoop=1;jettySize=auto;html=1;" parent="WIyWlLk6GJQsqaUBKTNV-1" source="5NWlZkQ-3YKYq24V9P-x-3" target="5NWlZkQ-3YKYq24V9P-x-9" edge="1">
          <mxGeometry relative="1" as="geometry" />
        </mxCell>
        <mxCell id="5NWlZkQ-3YKYq24V9P-x-15" value="Si" style="edgeLabel;html=1;align=center;verticalAlign=middle;resizable=0;points=[];" parent="5NWlZkQ-3YKYq24V9P-x-14" vertex="1" connectable="0">
          <mxGeometry x="0.219" y="-1" relative="1" as="geometry">
            <mxPoint as="offset" />
          </mxGeometry>
        </mxCell>
        <mxCell id="5NWlZkQ-3YKYq24V9P-x-38" value="" style="edgeStyle=orthogonalEdgeStyle;rounded=0;orthogonalLoop=1;jettySize=auto;html=1;" parent="WIyWlLk6GJQsqaUBKTNV-1" source="5NWlZkQ-3YKYq24V9P-x-3" target="5NWlZkQ-3YKYq24V9P-x-37" edge="1">
          <mxGeometry relative="1" as="geometry" />
        </mxCell>
        <mxCell id="5NWlZkQ-3YKYq24V9P-x-3" value="A!=B &amp;amp;&amp;amp;B!=C &amp;amp;&amp;amp; A!=C" style="rhombus;whiteSpace=wrap;html=1;" parent="WIyWlLk6GJQsqaUBKTNV-1" vertex="1">
          <mxGeometry x="1075" y="-750" width="175" height="90" as="geometry" />
        </mxCell>
        <mxCell id="5NWlZkQ-3YKYq24V9P-x-33" style="edgeStyle=orthogonalEdgeStyle;rounded=0;orthogonalLoop=1;jettySize=auto;html=1;entryX=0;entryY=0.5;entryDx=0;entryDy=0;" parent="WIyWlLk6GJQsqaUBKTNV-1" target="5NWlZkQ-3YKYq24V9P-x-32" edge="1">
          <mxGeometry relative="1" as="geometry">
            <mxPoint x="1010" y="-500" as="targetPoint" />
            <mxPoint x="1010" y="-675" as="sourcePoint" />
            <Array as="points">
              <mxPoint x="1010" y="-130" />
            </Array>
          </mxGeometry>
        </mxCell>
        <mxCell id="5NWlZkQ-3YKYq24V9P-x-6" value="No son diferentes" style="shape=parallelogram;perimeter=parallelogramPerimeter;whiteSpace=wrap;html=1;fixedSize=1;" parent="WIyWlLk6GJQsqaUBKTNV-1" vertex="1">
          <mxGeometry x="940" y="-740" width="120" height="60" as="geometry" />
        </mxCell>
        <mxCell id="5NWlZkQ-3YKYq24V9P-x-18" value="" style="edgeStyle=orthogonalEdgeStyle;rounded=0;orthogonalLoop=1;jettySize=auto;html=1;" parent="WIyWlLk6GJQsqaUBKTNV-1" source="5NWlZkQ-3YKYq24V9P-x-9" target="5NWlZkQ-3YKYq24V9P-x-17" edge="1">
          <mxGeometry relative="1" as="geometry" />
        </mxCell>
        <mxCell id="5NWlZkQ-3YKYq24V9P-x-20" value="" style="edgeStyle=orthogonalEdgeStyle;rounded=0;orthogonalLoop=1;jettySize=auto;html=1;" parent="WIyWlLk6GJQsqaUBKTNV-1" source="5NWlZkQ-3YKYq24V9P-x-9" target="5NWlZkQ-3YKYq24V9P-x-19" edge="1">
          <mxGeometry relative="1" as="geometry" />
        </mxCell>
        <mxCell id="5NWlZkQ-3YKYq24V9P-x-21" value="No" style="edgeLabel;html=1;align=center;verticalAlign=middle;resizable=0;points=[];" parent="5NWlZkQ-3YKYq24V9P-x-20" vertex="1" connectable="0">
          <mxGeometry x="-0.346" y="2" relative="1" as="geometry">
            <mxPoint as="offset" />
          </mxGeometry>
        </mxCell>
        <mxCell id="5NWlZkQ-3YKYq24V9P-x-9" value="A&amp;gt;B&amp;amp;&amp;amp; A&amp;gt;C" style="rhombus;whiteSpace=wrap;html=1;" parent="WIyWlLk6GJQsqaUBKTNV-1" vertex="1">
          <mxGeometry x="1320" y="-745" width="80" height="80" as="geometry" />
        </mxCell>
        <mxCell id="5NWlZkQ-3YKYq24V9P-x-34" style="edgeStyle=orthogonalEdgeStyle;rounded=0;orthogonalLoop=1;jettySize=auto;html=1;entryX=0.5;entryY=1;entryDx=0;entryDy=0;" parent="WIyWlLk6GJQsqaUBKTNV-1" source="5NWlZkQ-3YKYq24V9P-x-17" target="5NWlZkQ-3YKYq24V9P-x-32" edge="1">
          <mxGeometry relative="1" as="geometry">
            <mxPoint x="1590" y="-350" as="targetPoint" />
            <Array as="points">
              <mxPoint x="1630" y="-705" />
              <mxPoint x="1630" y="-350" />
              <mxPoint x="1200" y="-350" />
              <mxPoint x="1200" y="-110" />
            </Array>
          </mxGeometry>
        </mxCell>
        <mxCell id="5NWlZkQ-3YKYq24V9P-x-17" value="A es mayor" style="shape=parallelogram;perimeter=parallelogramPerimeter;whiteSpace=wrap;html=1;fixedSize=1;" parent="WIyWlLk6GJQsqaUBKTNV-1" vertex="1">
          <mxGeometry x="1440" y="-735" width="120" height="60" as="geometry" />
        </mxCell>
        <mxCell id="5NWlZkQ-3YKYq24V9P-x-23" value="" style="edgeStyle=orthogonalEdgeStyle;rounded=0;orthogonalLoop=1;jettySize=auto;html=1;" parent="WIyWlLk6GJQsqaUBKTNV-1" source="5NWlZkQ-3YKYq24V9P-x-19" target="5NWlZkQ-3YKYq24V9P-x-22" edge="1">
          <mxGeometry relative="1" as="geometry" />
        </mxCell>
        <mxCell id="5NWlZkQ-3YKYq24V9P-x-24" value="" style="edgeStyle=orthogonalEdgeStyle;rounded=0;orthogonalLoop=1;jettySize=auto;html=1;" parent="WIyWlLk6GJQsqaUBKTNV-1" source="5NWlZkQ-3YKYq24V9P-x-19" target="5NWlZkQ-3YKYq24V9P-x-22" edge="1">
          <mxGeometry relative="1" as="geometry" />
        </mxCell>
        <mxCell id="5NWlZkQ-3YKYq24V9P-x-25" value="Si" style="edgeLabel;html=1;align=center;verticalAlign=middle;resizable=0;points=[];" parent="5NWlZkQ-3YKYq24V9P-x-24" vertex="1" connectable="0">
          <mxGeometry x="-0.3429" relative="1" as="geometry">
            <mxPoint as="offset" />
          </mxGeometry>
        </mxCell>
        <mxCell id="5NWlZkQ-3YKYq24V9P-x-28" value="" style="edgeStyle=orthogonalEdgeStyle;rounded=0;orthogonalLoop=1;jettySize=auto;html=1;" parent="WIyWlLk6GJQsqaUBKTNV-1" source="5NWlZkQ-3YKYq24V9P-x-19" target="5NWlZkQ-3YKYq24V9P-x-27" edge="1">
          <mxGeometry relative="1" as="geometry" />
        </mxCell>
        <mxCell id="5NWlZkQ-3YKYq24V9P-x-29" value="No" style="edgeLabel;html=1;align=center;verticalAlign=middle;resizable=0;points=[];" parent="5NWlZkQ-3YKYq24V9P-x-28" vertex="1" connectable="0">
          <mxGeometry x="-0.7244" relative="1" as="geometry">
            <mxPoint as="offset" />
          </mxGeometry>
        </mxCell>
        <mxCell id="5NWlZkQ-3YKYq24V9P-x-19" value="B&amp;gt;C" style="rhombus;whiteSpace=wrap;html=1;" parent="WIyWlLk6GJQsqaUBKTNV-1" vertex="1">
          <mxGeometry x="1320" y="-620" width="80" height="80" as="geometry" />
        </mxCell>
        <mxCell id="5NWlZkQ-3YKYq24V9P-x-35" style="edgeStyle=orthogonalEdgeStyle;rounded=0;orthogonalLoop=1;jettySize=auto;html=1;entryX=0.599;entryY=0.891;entryDx=0;entryDy=0;entryPerimeter=0;" parent="WIyWlLk6GJQsqaUBKTNV-1" source="5NWlZkQ-3YKYq24V9P-x-22" target="5NWlZkQ-3YKYq24V9P-x-32" edge="1">
          <mxGeometry relative="1" as="geometry">
            <mxPoint x="1500" y="-360" as="targetPoint" />
            <Array as="points">
              <mxPoint x="1500" y="-440" />
              <mxPoint x="1501" y="-360" />
              <mxPoint x="1240" y="-360" />
              <mxPoint x="1240" y="-114" />
            </Array>
          </mxGeometry>
        </mxCell>
        <mxCell id="5NWlZkQ-3YKYq24V9P-x-22" value="B es mayor&amp;nbsp;" style="shape=parallelogram;perimeter=parallelogramPerimeter;whiteSpace=wrap;html=1;fixedSize=1;" parent="WIyWlLk6GJQsqaUBKTNV-1" vertex="1">
          <mxGeometry x="1440" y="-610" width="120" height="60" as="geometry" />
        </mxCell>
        <mxCell id="5NWlZkQ-3YKYq24V9P-x-36" style="edgeStyle=orthogonalEdgeStyle;rounded=0;orthogonalLoop=1;jettySize=auto;html=1;entryX=0.669;entryY=0.943;entryDx=0;entryDy=0;entryPerimeter=0;" parent="WIyWlLk6GJQsqaUBKTNV-1" source="5NWlZkQ-3YKYq24V9P-x-27" target="5NWlZkQ-3YKYq24V9P-x-32" edge="1">
          <mxGeometry relative="1" as="geometry">
            <mxPoint x="1360" y="-370" as="targetPoint" />
            <Array as="points">
              <mxPoint x="1360" y="-390" />
              <mxPoint x="1361" y="-370" />
              <mxPoint x="1210" y="-370" />
              <mxPoint x="1210" y="-112" />
            </Array>
          </mxGeometry>
        </mxCell>
        <mxCell id="5NWlZkQ-3YKYq24V9P-x-27" value="C es mayor" style="shape=parallelogram;perimeter=parallelogramPerimeter;whiteSpace=wrap;html=1;fixedSize=1;" parent="WIyWlLk6GJQsqaUBKTNV-1" vertex="1">
          <mxGeometry x="1300" y="-490" width="120" height="60" as="geometry" />
        </mxCell>
        <mxCell id="5NWlZkQ-3YKYq24V9P-x-32" value="Fin" style="ellipse;whiteSpace=wrap;html=1;" parent="WIyWlLk6GJQsqaUBKTNV-1" vertex="1">
          <mxGeometry x="1070" y="-140" width="120" height="40" as="geometry" />
        </mxCell>
        <mxCell id="5NWlZkQ-3YKYq24V9P-x-40" value="" style="edgeStyle=orthogonalEdgeStyle;rounded=0;orthogonalLoop=1;jettySize=auto;html=1;" parent="WIyWlLk6GJQsqaUBKTNV-1" source="5NWlZkQ-3YKYq24V9P-x-37" target="5NWlZkQ-3YKYq24V9P-x-39" edge="1">
          <mxGeometry relative="1" as="geometry" />
        </mxCell>
        <mxCell id="5NWlZkQ-3YKYq24V9P-x-41" value="Si" style="edgeLabel;html=1;align=center;verticalAlign=middle;resizable=0;points=[];" parent="5NWlZkQ-3YKYq24V9P-x-40" vertex="1" connectable="0">
          <mxGeometry x="0.248" y="2" relative="1" as="geometry">
            <mxPoint as="offset" />
          </mxGeometry>
        </mxCell>
        <mxCell id="5NWlZkQ-3YKYq24V9P-x-44" value="" style="edgeStyle=orthogonalEdgeStyle;rounded=0;orthogonalLoop=1;jettySize=auto;html=1;" parent="WIyWlLk6GJQsqaUBKTNV-1" source="5NWlZkQ-3YKYq24V9P-x-37" target="5NWlZkQ-3YKYq24V9P-x-43" edge="1">
          <mxGeometry relative="1" as="geometry" />
        </mxCell>
        <mxCell id="5NWlZkQ-3YKYq24V9P-x-47" value="No" style="edgeLabel;html=1;align=center;verticalAlign=middle;resizable=0;points=[];" parent="5NWlZkQ-3YKYq24V9P-x-44" vertex="1" connectable="0">
          <mxGeometry x="0.5137" y="-1" relative="1" as="geometry">
            <mxPoint as="offset" />
          </mxGeometry>
        </mxCell>
        <mxCell id="5NWlZkQ-3YKYq24V9P-x-37" value="A&amp;lt;B&amp;amp;&amp;amp; A&amp;lt;C" style="rhombus;whiteSpace=wrap;html=1;" parent="WIyWlLk6GJQsqaUBKTNV-1" vertex="1">
          <mxGeometry x="1122.5" y="-590" width="80" height="80" as="geometry" />
        </mxCell>
        <mxCell id="5NWlZkQ-3YKYq24V9P-x-52" style="edgeStyle=orthogonalEdgeStyle;rounded=0;orthogonalLoop=1;jettySize=auto;html=1;entryX=0.703;entryY=0.079;entryDx=0;entryDy=0;entryPerimeter=0;" parent="WIyWlLk6GJQsqaUBKTNV-1" source="5NWlZkQ-3YKYq24V9P-x-39" target="5NWlZkQ-3YKYq24V9P-x-32" edge="1">
          <mxGeometry relative="1" as="geometry">
            <mxPoint x="1180" y="-390" as="targetPoint" />
            <Array as="points">
              <mxPoint x="1245" y="-468" />
              <mxPoint x="1300" y="-468" />
              <mxPoint x="1300" y="-390" />
              <mxPoint x="1159" y="-390" />
            </Array>
          </mxGeometry>
        </mxCell>
        <mxCell id="5NWlZkQ-3YKYq24V9P-x-39" value="A es menor" style="shape=parallelogram;perimeter=parallelogramPerimeter;whiteSpace=wrap;html=1;fixedSize=1;" parent="WIyWlLk6GJQsqaUBKTNV-1" vertex="1">
          <mxGeometry x="1220" y="-570" width="90" height="40" as="geometry" />
        </mxCell>
        <mxCell id="5NWlZkQ-3YKYq24V9P-x-46" value="" style="edgeStyle=orthogonalEdgeStyle;rounded=0;orthogonalLoop=1;jettySize=auto;html=1;" parent="WIyWlLk6GJQsqaUBKTNV-1" source="5NWlZkQ-3YKYq24V9P-x-43" target="5NWlZkQ-3YKYq24V9P-x-45" edge="1">
          <mxGeometry relative="1" as="geometry" />
        </mxCell>
        <mxCell id="5NWlZkQ-3YKYq24V9P-x-49" style="edgeStyle=orthogonalEdgeStyle;rounded=0;orthogonalLoop=1;jettySize=auto;html=1;entryX=0.5;entryY=0;entryDx=0;entryDy=0;" parent="WIyWlLk6GJQsqaUBKTNV-1" source="5NWlZkQ-3YKYq24V9P-x-43" target="5NWlZkQ-3YKYq24V9P-x-48" edge="1">
          <mxGeometry relative="1" as="geometry" />
        </mxCell>
        <mxCell id="5NWlZkQ-3YKYq24V9P-x-43" value="B&amp;lt;C" style="rhombus;whiteSpace=wrap;html=1;" parent="WIyWlLk6GJQsqaUBKTNV-1" vertex="1">
          <mxGeometry x="1075" y="-470" width="80" height="80" as="geometry" />
        </mxCell>
        <mxCell id="5NWlZkQ-3YKYq24V9P-x-45" value="B es menor" style="shape=parallelogram;perimeter=parallelogramPerimeter;whiteSpace=wrap;html=1;fixedSize=1;" parent="WIyWlLk6GJQsqaUBKTNV-1" vertex="1">
          <mxGeometry x="1195" y="-470" width="90" height="40" as="geometry" />
        </mxCell>
        <mxCell id="5NWlZkQ-3YKYq24V9P-x-48" value="C es menor" style="shape=parallelogram;perimeter=parallelogramPerimeter;whiteSpace=wrap;html=1;fixedSize=1;" parent="WIyWlLk6GJQsqaUBKTNV-1" vertex="1">
          <mxGeometry x="1085" y="-360" width="90" height="40" as="geometry" />
        </mxCell>
        <mxCell id="5NWlZkQ-3YKYq24V9P-x-50" style="edgeStyle=orthogonalEdgeStyle;rounded=0;orthogonalLoop=1;jettySize=auto;html=1;entryX=0.042;entryY=0.25;entryDx=0;entryDy=0;entryPerimeter=0;" parent="WIyWlLk6GJQsqaUBKTNV-1" source="5NWlZkQ-3YKYq24V9P-x-48" target="5NWlZkQ-3YKYq24V9P-x-32" edge="1">
          <mxGeometry relative="1" as="geometry" />
        </mxCell>
        <mxCell id="5NWlZkQ-3YKYq24V9P-x-51" style="edgeStyle=orthogonalEdgeStyle;rounded=0;orthogonalLoop=1;jettySize=auto;html=1;entryX=0.792;entryY=0;entryDx=0;entryDy=0;entryPerimeter=0;" parent="WIyWlLk6GJQsqaUBKTNV-1" source="5NWlZkQ-3YKYq24V9P-x-45" target="5NWlZkQ-3YKYq24V9P-x-32" edge="1">
          <mxGeometry relative="1" as="geometry" />
        </mxCell>
        <mxCell id="r_tew_Cvf3GbZcf3USQw-1" value="Ejercicio 6: Conversor de dólares a euros&lt;div&gt;&lt;br&gt;&lt;/div&gt;&lt;div&gt;Escribe un programa que convierta una cantidad de dinero en dólares a euros utilizando una tasa de cambio fija.&lt;/div&gt;" style="rounded=0;whiteSpace=wrap;html=1;" parent="WIyWlLk6GJQsqaUBKTNV-1" vertex="1">
          <mxGeometry x="56" y="360" width="290" height="110" as="geometry" />
        </mxCell>
        <mxCell id="r_tew_Cvf3GbZcf3USQw-5" value="" style="edgeStyle=orthogonalEdgeStyle;rounded=0;orthogonalLoop=1;jettySize=auto;html=1;" parent="WIyWlLk6GJQsqaUBKTNV-1" source="r_tew_Cvf3GbZcf3USQw-2" target="r_tew_Cvf3GbZcf3USQw-4" edge="1">
          <mxGeometry relative="1" as="geometry" />
        </mxCell>
        <mxCell id="r_tew_Cvf3GbZcf3USQw-2" value="Inicio" style="ellipse;whiteSpace=wrap;html=1;" parent="WIyWlLk6GJQsqaUBKTNV-1" vertex="1">
          <mxGeometry x="121" y="510" width="120" height="40" as="geometry" />
        </mxCell>
        <mxCell id="r_tew_Cvf3GbZcf3USQw-7" value="" style="edgeStyle=orthogonalEdgeStyle;rounded=0;orthogonalLoop=1;jettySize=auto;html=1;" parent="WIyWlLk6GJQsqaUBKTNV-1" source="r_tew_Cvf3GbZcf3USQw-4" target="r_tew_Cvf3GbZcf3USQw-6" edge="1">
          <mxGeometry relative="1" as="geometry" />
        </mxCell>
        <mxCell id="r_tew_Cvf3GbZcf3USQw-4" value="Dólares, cantidadE" style="rounded=1;whiteSpace=wrap;html=1;fontSize=12;glass=0;strokeWidth=1;shadow=0;" parent="WIyWlLk6GJQsqaUBKTNV-1" vertex="1">
          <mxGeometry x="121" y="590" width="120" height="50" as="geometry" />
        </mxCell>
        <mxCell id="r_tew_Cvf3GbZcf3USQw-9" value="" style="edgeStyle=orthogonalEdgeStyle;rounded=0;orthogonalLoop=1;jettySize=auto;html=1;" parent="WIyWlLk6GJQsqaUBKTNV-1" source="r_tew_Cvf3GbZcf3USQw-6" target="r_tew_Cvf3GbZcf3USQw-8" edge="1">
          <mxGeometry relative="1" as="geometry" />
        </mxCell>
        <mxCell id="r_tew_Cvf3GbZcf3USQw-6" value="Ingreso cantidad de dólares" style="shape=parallelogram;perimeter=parallelogramPerimeter;whiteSpace=wrap;html=1;fixedSize=1;" parent="WIyWlLk6GJQsqaUBKTNV-1" vertex="1">
          <mxGeometry x="90.5" y="680" width="181" height="60" as="geometry" />
        </mxCell>
        <mxCell id="r_tew_Cvf3GbZcf3USQw-12" value="" style="edgeStyle=orthogonalEdgeStyle;rounded=0;orthogonalLoop=1;jettySize=auto;html=1;" parent="WIyWlLk6GJQsqaUBKTNV-1" source="r_tew_Cvf3GbZcf3USQw-8" edge="1">
          <mxGeometry relative="1" as="geometry">
            <mxPoint x="269.9999999999998" y="810.0000000000005" as="targetPoint" />
          </mxGeometry>
        </mxCell>
        <mxCell id="r_tew_Cvf3GbZcf3USQw-14" value="Si" style="edgeLabel;html=1;align=center;verticalAlign=middle;resizable=0;points=[];" parent="r_tew_Cvf3GbZcf3USQw-12" vertex="1" connectable="0">
          <mxGeometry x="-0.2084" relative="1" as="geometry">
            <mxPoint as="offset" />
          </mxGeometry>
        </mxCell>
        <mxCell id="r_tew_Cvf3GbZcf3USQw-19" value="" style="edgeStyle=orthogonalEdgeStyle;rounded=0;orthogonalLoop=1;jettySize=auto;html=1;" parent="WIyWlLk6GJQsqaUBKTNV-1" source="r_tew_Cvf3GbZcf3USQw-8" target="r_tew_Cvf3GbZcf3USQw-17" edge="1">
          <mxGeometry relative="1" as="geometry" />
        </mxCell>
        <mxCell id="r_tew_Cvf3GbZcf3USQw-33" value="No" style="edgeLabel;html=1;align=center;verticalAlign=middle;resizable=0;points=[];" parent="r_tew_Cvf3GbZcf3USQw-19" vertex="1" connectable="0">
          <mxGeometry x="-0.3718" y="4" relative="1" as="geometry">
            <mxPoint as="offset" />
          </mxGeometry>
        </mxCell>
        <mxCell id="r_tew_Cvf3GbZcf3USQw-8" value="Dólares &amp;gt;=0" style="rhombus;whiteSpace=wrap;html=1;" parent="WIyWlLk6GJQsqaUBKTNV-1" vertex="1">
          <mxGeometry x="141" y="770" width="80" height="80" as="geometry" />
        </mxCell>
        <mxCell id="r_tew_Cvf3GbZcf3USQw-16" value="" style="edgeStyle=orthogonalEdgeStyle;rounded=0;orthogonalLoop=1;jettySize=auto;html=1;" parent="WIyWlLk6GJQsqaUBKTNV-1" source="r_tew_Cvf3GbZcf3USQw-13" target="r_tew_Cvf3GbZcf3USQw-15" edge="1">
          <mxGeometry relative="1" as="geometry" />
        </mxCell>
        <mxCell id="r_tew_Cvf3GbZcf3USQw-13" value="cantidadE= Dólares *&amp;nbsp;&lt;h2 style=&quot;box-sizing: border-box; margin-right: 0px; margin-left: 0px; color: var(--color-content-primary); line-height: 31.72px; letter-spacing: -0.02em; font-weight: var(--font-weight-semi-bold); font-size: var(--font-size-26); font-family: Inter, Helvetica, Arial, sans-serif; text-align: left; background-color: rgb(255, 255, 255); margin-top: var(--size-8) !important; margin-bottom: var(--size-8) !important;&quot; class=&quot;np-text-title-section m-t-1 m-b-1&quot;&gt;0,8984&amp;nbsp;&lt;/h2&gt;" style="rounded=0;whiteSpace=wrap;html=1;" parent="WIyWlLk6GJQsqaUBKTNV-1" vertex="1">
          <mxGeometry x="275" y="785" width="120" height="50" as="geometry" />
        </mxCell>
        <mxCell id="r_tew_Cvf3GbZcf3USQw-22" style="edgeStyle=orthogonalEdgeStyle;rounded=0;orthogonalLoop=1;jettySize=auto;html=1;" parent="WIyWlLk6GJQsqaUBKTNV-1" source="r_tew_Cvf3GbZcf3USQw-15" target="r_tew_Cvf3GbZcf3USQw-20" edge="1">
          <mxGeometry relative="1" as="geometry" />
        </mxCell>
        <mxCell id="r_tew_Cvf3GbZcf3USQw-15" value="Tu cantidad de Euros es:&amp;nbsp; cantidadE" style="shape=parallelogram;perimeter=parallelogramPerimeter;whiteSpace=wrap;html=1;fixedSize=1;" parent="WIyWlLk6GJQsqaUBKTNV-1" vertex="1">
          <mxGeometry x="255" y="890" width="160" height="50" as="geometry" />
        </mxCell>
        <mxCell id="r_tew_Cvf3GbZcf3USQw-21" style="edgeStyle=orthogonalEdgeStyle;rounded=0;orthogonalLoop=1;jettySize=auto;html=1;" parent="WIyWlLk6GJQsqaUBKTNV-1" source="r_tew_Cvf3GbZcf3USQw-17" target="r_tew_Cvf3GbZcf3USQw-20" edge="1">
          <mxGeometry relative="1" as="geometry">
            <mxPoint x="5.000000000000227" y="1010" as="targetPoint" />
            <Array as="points">
              <mxPoint x="5" y="950" />
              <mxPoint x="6" y="950" />
              <mxPoint x="6" y="1010" />
            </Array>
          </mxGeometry>
        </mxCell>
        <mxCell id="r_tew_Cvf3GbZcf3USQw-17" value="La cantidad debe ser positiva" style="shape=parallelogram;perimeter=parallelogramPerimeter;whiteSpace=wrap;html=1;fixedSize=1;" parent="WIyWlLk6GJQsqaUBKTNV-1" vertex="1">
          <mxGeometry x="-60" y="785" width="130" height="85" as="geometry" />
        </mxCell>
        <mxCell id="r_tew_Cvf3GbZcf3USQw-20" value="Fin" style="ellipse;whiteSpace=wrap;html=1;" parent="WIyWlLk6GJQsqaUBKTNV-1" vertex="1">
          <mxGeometry x="101" y="980" width="120" height="40" as="geometry" />
        </mxCell>
        <mxCell id="r_tew_Cvf3GbZcf3USQw-23" value="Ejercicio 7: Conversor de dólares a euros&lt;div&gt;&lt;br&gt;&lt;/div&gt;&lt;div&gt;Escribe un programa que permita al usuario ingresar el precio original de un artículo y el porcentaje de descuento. Luego el programa debe calcular y mostrar el precio con el descuento aplicado&lt;/div&gt;" style="rounded=0;whiteSpace=wrap;html=1;" parent="WIyWlLk6GJQsqaUBKTNV-1" vertex="1">
          <mxGeometry x="630" y="360" width="290" height="110" as="geometry" />
        </mxCell>
        <mxCell id="r_tew_Cvf3GbZcf3USQw-27" value="" style="edgeStyle=orthogonalEdgeStyle;rounded=0;orthogonalLoop=1;jettySize=auto;html=1;" parent="WIyWlLk6GJQsqaUBKTNV-1" source="r_tew_Cvf3GbZcf3USQw-24" target="r_tew_Cvf3GbZcf3USQw-25" edge="1">
          <mxGeometry relative="1" as="geometry" />
        </mxCell>
        <mxCell id="r_tew_Cvf3GbZcf3USQw-24" value="Inicio" style="ellipse;whiteSpace=wrap;html=1;" parent="WIyWlLk6GJQsqaUBKTNV-1" vertex="1">
          <mxGeometry x="715" y="510" width="120" height="40" as="geometry" />
        </mxCell>
        <mxCell id="r_tew_Cvf3GbZcf3USQw-29" value="" style="edgeStyle=orthogonalEdgeStyle;rounded=0;orthogonalLoop=1;jettySize=auto;html=1;" parent="WIyWlLk6GJQsqaUBKTNV-1" source="r_tew_Cvf3GbZcf3USQw-25" target="r_tew_Cvf3GbZcf3USQw-28" edge="1">
          <mxGeometry relative="1" as="geometry" />
        </mxCell>
        <mxCell id="r_tew_Cvf3GbZcf3USQw-25" value="precioOr, porcentajeD, precioDescuento" style="rounded=1;whiteSpace=wrap;html=1;fontSize=12;glass=0;strokeWidth=1;shadow=0;" parent="WIyWlLk6GJQsqaUBKTNV-1" vertex="1">
          <mxGeometry x="715" y="585" width="120" height="55" as="geometry" />
        </mxCell>
        <mxCell id="r_tew_Cvf3GbZcf3USQw-31" value="" style="edgeStyle=orthogonalEdgeStyle;rounded=0;orthogonalLoop=1;jettySize=auto;html=1;" parent="WIyWlLk6GJQsqaUBKTNV-1" source="r_tew_Cvf3GbZcf3USQw-28" target="r_tew_Cvf3GbZcf3USQw-30" edge="1">
          <mxGeometry relative="1" as="geometry" />
        </mxCell>
        <mxCell id="r_tew_Cvf3GbZcf3USQw-28" value="Ingreso precioOr, porcentajeD, precioDescuento" style="shape=parallelogram;perimeter=parallelogramPerimeter;whiteSpace=wrap;html=1;fixedSize=1;" parent="WIyWlLk6GJQsqaUBKTNV-1" vertex="1">
          <mxGeometry x="677.25" y="710" width="195.5" height="50" as="geometry" />
        </mxCell>
        <mxCell id="r_tew_Cvf3GbZcf3USQw-38" value="" style="edgeStyle=orthogonalEdgeStyle;rounded=0;orthogonalLoop=1;jettySize=auto;html=1;" parent="WIyWlLk6GJQsqaUBKTNV-1" source="r_tew_Cvf3GbZcf3USQw-30" edge="1">
          <mxGeometry relative="1" as="geometry">
            <mxPoint x="910" y="885" as="targetPoint" />
          </mxGeometry>
        </mxCell>
        <mxCell id="r_tew_Cvf3GbZcf3USQw-42" value="Si" style="edgeLabel;html=1;align=center;verticalAlign=middle;resizable=0;points=[];" parent="r_tew_Cvf3GbZcf3USQw-38" vertex="1" connectable="0">
          <mxGeometry x="0.0579" y="-1" relative="1" as="geometry">
            <mxPoint as="offset" />
          </mxGeometry>
        </mxCell>
        <mxCell id="r_tew_Cvf3GbZcf3USQw-44" value="" style="edgeStyle=orthogonalEdgeStyle;rounded=0;orthogonalLoop=1;jettySize=auto;html=1;" parent="WIyWlLk6GJQsqaUBKTNV-1" source="r_tew_Cvf3GbZcf3USQw-30" target="r_tew_Cvf3GbZcf3USQw-43" edge="1">
          <mxGeometry relative="1" as="geometry" />
        </mxCell>
        <mxCell id="r_tew_Cvf3GbZcf3USQw-50" value="No" style="edgeLabel;html=1;align=center;verticalAlign=middle;resizable=0;points=[];" parent="r_tew_Cvf3GbZcf3USQw-44" vertex="1" connectable="0">
          <mxGeometry x="-0.1099" relative="1" as="geometry">
            <mxPoint as="offset" />
          </mxGeometry>
        </mxCell>
        <mxCell id="r_tew_Cvf3GbZcf3USQw-30" value="precio &amp;gt;=0 &amp;amp;&amp;amp;descuento&amp;gt;=0" style="rhombus;whiteSpace=wrap;html=1;" parent="WIyWlLk6GJQsqaUBKTNV-1" vertex="1">
          <mxGeometry x="717.5" y="822.5" width="115" height="130" as="geometry" />
        </mxCell>
        <mxCell id="r_tew_Cvf3GbZcf3USQw-41" value="" style="edgeStyle=orthogonalEdgeStyle;rounded=0;orthogonalLoop=1;jettySize=auto;html=1;" parent="WIyWlLk6GJQsqaUBKTNV-1" source="r_tew_Cvf3GbZcf3USQw-39" target="r_tew_Cvf3GbZcf3USQw-40" edge="1">
          <mxGeometry relative="1" as="geometry" />
        </mxCell>
        <mxCell id="r_tew_Cvf3GbZcf3USQw-39" value="PrecioDescuento = (PrecioO * porcentajeD /100)" style="rounded=0;whiteSpace=wrap;html=1;" parent="WIyWlLk6GJQsqaUBKTNV-1" vertex="1">
          <mxGeometry x="910" y="855" width="120" height="65" as="geometry" />
        </mxCell>
        <mxCell id="r_tew_Cvf3GbZcf3USQw-48" style="edgeStyle=orthogonalEdgeStyle;rounded=0;orthogonalLoop=1;jettySize=auto;html=1;entryX=1;entryY=0;entryDx=0;entryDy=0;" parent="WIyWlLk6GJQsqaUBKTNV-1" source="r_tew_Cvf3GbZcf3USQw-40" target="r_tew_Cvf3GbZcf3USQw-46" edge="1">
          <mxGeometry relative="1" as="geometry" />
        </mxCell>
        <mxCell id="r_tew_Cvf3GbZcf3USQw-40" value="Tu precio con descuento es + PrecioDescuento" style="shape=parallelogram;perimeter=parallelogramPerimeter;whiteSpace=wrap;html=1;fixedSize=1;" parent="WIyWlLk6GJQsqaUBKTNV-1" vertex="1">
          <mxGeometry x="872.75" y="960" width="195.5" height="50" as="geometry" />
        </mxCell>
        <mxCell id="r_tew_Cvf3GbZcf3USQw-47" style="edgeStyle=orthogonalEdgeStyle;rounded=0;orthogonalLoop=1;jettySize=auto;html=1;entryX=0;entryY=0.5;entryDx=0;entryDy=0;" parent="WIyWlLk6GJQsqaUBKTNV-1" source="r_tew_Cvf3GbZcf3USQw-43" target="r_tew_Cvf3GbZcf3USQw-46" edge="1">
          <mxGeometry relative="1" as="geometry">
            <mxPoint x="595.25" y="1080" as="targetPoint" />
            <Array as="points">
              <mxPoint x="560" y="1060" />
            </Array>
          </mxGeometry>
        </mxCell>
        <mxCell id="r_tew_Cvf3GbZcf3USQw-43" value="El precio del producto debe ser mayor a 0 dólares y el descuento debe ser igualmente mayor a 0" style="shape=parallelogram;perimeter=parallelogramPerimeter;whiteSpace=wrap;html=1;fixedSize=1;" parent="WIyWlLk6GJQsqaUBKTNV-1" vertex="1">
          <mxGeometry x="490" y="862.5" width="195.5" height="50" as="geometry" />
        </mxCell>
        <mxCell id="r_tew_Cvf3GbZcf3USQw-46" value="Fin" style="ellipse;whiteSpace=wrap;html=1;" parent="WIyWlLk6GJQsqaUBKTNV-1" vertex="1">
          <mxGeometry x="730" y="1040" width="120" height="40" as="geometry" />
        </mxCell>
        <mxCell id="r_tew_Cvf3GbZcf3USQw-49" value="Ejercicio 8: Calculadora de operaciones básicas&lt;div&gt;&lt;br&gt;&lt;/div&gt;&lt;div&gt;Escribe un programa que permita al usuario realizar operaciones matemáticas básicas, como suma , resta, multiplicación, división, entre dos números. El usuario debe ingresar los dos números y seleccionar la operación deseada(Suma, resta, multiplicación o división)&lt;/div&gt;" style="rounded=0;whiteSpace=wrap;html=1;" parent="WIyWlLk6GJQsqaUBKTNV-1" vertex="1">
          <mxGeometry x="1220" y="330" width="290" height="130" as="geometry" />
        </mxCell>
        <mxCell id="r_tew_Cvf3GbZcf3USQw-53" value="" style="edgeStyle=orthogonalEdgeStyle;rounded=0;orthogonalLoop=1;jettySize=auto;html=1;" parent="WIyWlLk6GJQsqaUBKTNV-1" source="r_tew_Cvf3GbZcf3USQw-51" target="r_tew_Cvf3GbZcf3USQw-52" edge="1">
          <mxGeometry relative="1" as="geometry" />
        </mxCell>
        <mxCell id="r_tew_Cvf3GbZcf3USQw-51" value="Inicio" style="ellipse;whiteSpace=wrap;html=1;" parent="WIyWlLk6GJQsqaUBKTNV-1" vertex="1">
          <mxGeometry x="1280" y="490" width="120" height="40" as="geometry" />
        </mxCell>
        <mxCell id="r_tew_Cvf3GbZcf3USQw-56" value="" style="edgeStyle=orthogonalEdgeStyle;rounded=0;orthogonalLoop=1;jettySize=auto;html=1;" parent="WIyWlLk6GJQsqaUBKTNV-1" source="r_tew_Cvf3GbZcf3USQw-52" target="r_tew_Cvf3GbZcf3USQw-55" edge="1">
          <mxGeometry relative="1" as="geometry" />
        </mxCell>
        <mxCell id="r_tew_Cvf3GbZcf3USQw-52" value="resultado,num1,num2,operador" style="rounded=1;whiteSpace=wrap;html=1;fontSize=12;glass=0;strokeWidth=1;shadow=0;" parent="WIyWlLk6GJQsqaUBKTNV-1" vertex="1">
          <mxGeometry x="1250" y="570" width="180" height="55" as="geometry" />
        </mxCell>
        <mxCell id="r_tew_Cvf3GbZcf3USQw-58" value="" style="edgeStyle=orthogonalEdgeStyle;rounded=0;orthogonalLoop=1;jettySize=auto;html=1;" parent="WIyWlLk6GJQsqaUBKTNV-1" source="r_tew_Cvf3GbZcf3USQw-55" edge="1">
          <mxGeometry relative="1" as="geometry">
            <mxPoint x="1340.0303030303035" y="782.534255599473" as="targetPoint" />
          </mxGeometry>
        </mxCell>
        <mxCell id="r_tew_Cvf3GbZcf3USQw-55" value="Ingreso num1,num2,operador" style="shape=parallelogram;perimeter=parallelogramPerimeter;whiteSpace=wrap;html=1;fixedSize=1;" parent="WIyWlLk6GJQsqaUBKTNV-1" vertex="1">
          <mxGeometry x="1242.25" y="680" width="195.5" height="50" as="geometry" />
        </mxCell>
        <mxCell id="r_tew_Cvf3GbZcf3USQw-64" value="" style="edgeStyle=orthogonalEdgeStyle;rounded=0;orthogonalLoop=1;jettySize=auto;html=1;" parent="WIyWlLk6GJQsqaUBKTNV-1" source="r_tew_Cvf3GbZcf3USQw-62" target="r_tew_Cvf3GbZcf3USQw-63" edge="1">
          <mxGeometry relative="1" as="geometry" />
        </mxCell>
        <mxCell id="r_tew_Cvf3GbZcf3USQw-65" value="Si" style="edgeLabel;html=1;align=center;verticalAlign=middle;resizable=0;points=[];" parent="r_tew_Cvf3GbZcf3USQw-64" vertex="1" connectable="0">
          <mxGeometry x="-0.4015" y="4" relative="1" as="geometry">
            <mxPoint as="offset" />
          </mxGeometry>
        </mxCell>
        <mxCell id="r_tew_Cvf3GbZcf3USQw-71" value="" style="edgeStyle=orthogonalEdgeStyle;rounded=0;orthogonalLoop=1;jettySize=auto;html=1;" parent="WIyWlLk6GJQsqaUBKTNV-1" source="r_tew_Cvf3GbZcf3USQw-62" target="r_tew_Cvf3GbZcf3USQw-70" edge="1">
          <mxGeometry relative="1" as="geometry" />
        </mxCell>
        <mxCell id="r_tew_Cvf3GbZcf3USQw-72" value="No" style="edgeLabel;html=1;align=center;verticalAlign=middle;resizable=0;points=[];" parent="r_tew_Cvf3GbZcf3USQw-71" vertex="1" connectable="0">
          <mxGeometry x="-0.5252" relative="1" as="geometry">
            <mxPoint as="offset" />
          </mxGeometry>
        </mxCell>
        <mxCell id="r_tew_Cvf3GbZcf3USQw-62" value="Si operador = &#39;+&#39;" style="rhombus;whiteSpace=wrap;html=1;" parent="WIyWlLk6GJQsqaUBKTNV-1" vertex="1">
          <mxGeometry x="1282.5" y="780" width="115" height="110" as="geometry" />
        </mxCell>
        <mxCell id="r_tew_Cvf3GbZcf3USQw-67" value="" style="edgeStyle=orthogonalEdgeStyle;rounded=0;orthogonalLoop=1;jettySize=auto;html=1;" parent="WIyWlLk6GJQsqaUBKTNV-1" source="r_tew_Cvf3GbZcf3USQw-63" target="r_tew_Cvf3GbZcf3USQw-66" edge="1">
          <mxGeometry relative="1" as="geometry" />
        </mxCell>
        <mxCell id="r_tew_Cvf3GbZcf3USQw-63" value="resultado = num1 + num2" style="rounded=0;whiteSpace=wrap;html=1;" parent="WIyWlLk6GJQsqaUBKTNV-1" vertex="1">
          <mxGeometry x="1470" y="805" width="120" height="60" as="geometry" />
        </mxCell>
        <mxCell id="r_tew_Cvf3GbZcf3USQw-111" style="edgeStyle=orthogonalEdgeStyle;rounded=0;orthogonalLoop=1;jettySize=auto;html=1;entryX=1;entryY=0.5;entryDx=0;entryDy=0;" parent="WIyWlLk6GJQsqaUBKTNV-1" source="r_tew_Cvf3GbZcf3USQw-66" target="r_tew_Cvf3GbZcf3USQw-109" edge="1">
          <mxGeometry relative="1" as="geometry">
            <mxPoint x="1879.9999999999995" y="1552.5974818638392" as="targetPoint" />
            <Array as="points">
              <mxPoint x="1920" y="845" />
              <mxPoint x="1920" y="1553" />
              <mxPoint x="1398" y="1553" />
            </Array>
          </mxGeometry>
        </mxCell>
        <mxCell id="r_tew_Cvf3GbZcf3USQw-66" value="El resultado de tu suma es + resultado" style="shape=parallelogram;perimeter=parallelogramPerimeter;whiteSpace=wrap;html=1;fixedSize=1;" parent="WIyWlLk6GJQsqaUBKTNV-1" vertex="1">
          <mxGeometry x="1640" y="805" width="180" height="60" as="geometry" />
        </mxCell>
        <mxCell id="r_tew_Cvf3GbZcf3USQw-74" value="" style="edgeStyle=orthogonalEdgeStyle;rounded=0;orthogonalLoop=1;jettySize=auto;html=1;" parent="WIyWlLk6GJQsqaUBKTNV-1" source="r_tew_Cvf3GbZcf3USQw-70" target="r_tew_Cvf3GbZcf3USQw-73" edge="1">
          <mxGeometry relative="1" as="geometry" />
        </mxCell>
        <mxCell id="r_tew_Cvf3GbZcf3USQw-77" value="Si" style="edgeLabel;html=1;align=center;verticalAlign=middle;resizable=0;points=[];" parent="r_tew_Cvf3GbZcf3USQw-74" vertex="1" connectable="0">
          <mxGeometry x="0.0376" y="1" relative="1" as="geometry">
            <mxPoint as="offset" />
          </mxGeometry>
        </mxCell>
        <mxCell id="r_tew_Cvf3GbZcf3USQw-90" value="" style="edgeStyle=orthogonalEdgeStyle;rounded=0;orthogonalLoop=1;jettySize=auto;html=1;" parent="WIyWlLk6GJQsqaUBKTNV-1" source="r_tew_Cvf3GbZcf3USQw-70" target="r_tew_Cvf3GbZcf3USQw-78" edge="1">
          <mxGeometry relative="1" as="geometry" />
        </mxCell>
        <mxCell id="r_tew_Cvf3GbZcf3USQw-91" value="No" style="edgeLabel;html=1;align=center;verticalAlign=middle;resizable=0;points=[];" parent="r_tew_Cvf3GbZcf3USQw-90" vertex="1" connectable="0">
          <mxGeometry x="-0.1256" y="-3" relative="1" as="geometry">
            <mxPoint as="offset" />
          </mxGeometry>
        </mxCell>
        <mxCell id="r_tew_Cvf3GbZcf3USQw-70" value="Si operador&amp;nbsp; = &quot;-&quot;" style="rhombus;whiteSpace=wrap;html=1;" parent="WIyWlLk6GJQsqaUBKTNV-1" vertex="1">
          <mxGeometry x="1286.25" y="952.5" width="102.5" height="100" as="geometry" />
        </mxCell>
        <mxCell id="r_tew_Cvf3GbZcf3USQw-76" value="" style="edgeStyle=orthogonalEdgeStyle;rounded=0;orthogonalLoop=1;jettySize=auto;html=1;" parent="WIyWlLk6GJQsqaUBKTNV-1" source="r_tew_Cvf3GbZcf3USQw-73" target="r_tew_Cvf3GbZcf3USQw-75" edge="1">
          <mxGeometry relative="1" as="geometry" />
        </mxCell>
        <mxCell id="r_tew_Cvf3GbZcf3USQw-73" value="resultado = num1 - num2" style="rounded=0;whiteSpace=wrap;html=1;" parent="WIyWlLk6GJQsqaUBKTNV-1" vertex="1">
          <mxGeometry x="1430" y="972.5" width="120" height="60" as="geometry" />
        </mxCell>
        <mxCell id="r_tew_Cvf3GbZcf3USQw-112" style="edgeStyle=orthogonalEdgeStyle;rounded=0;orthogonalLoop=1;jettySize=auto;html=1;entryX=1;entryY=0;entryDx=0;entryDy=0;" parent="WIyWlLk6GJQsqaUBKTNV-1" source="r_tew_Cvf3GbZcf3USQw-75" target="r_tew_Cvf3GbZcf3USQw-109" edge="1">
          <mxGeometry relative="1" as="geometry">
            <mxPoint x="1839.9999999999995" y="1530" as="targetPoint" />
            <Array as="points">
              <mxPoint x="1900" y="1002" />
              <mxPoint x="1900" y="1530" />
              <mxPoint x="1380" y="1530" />
            </Array>
          </mxGeometry>
        </mxCell>
        <mxCell id="r_tew_Cvf3GbZcf3USQw-75" value="El resultado de tu resta es + resultado" style="shape=parallelogram;perimeter=parallelogramPerimeter;whiteSpace=wrap;html=1;fixedSize=1;" parent="WIyWlLk6GJQsqaUBKTNV-1" vertex="1">
          <mxGeometry x="1600" y="972.5" width="180" height="60" as="geometry" />
        </mxCell>
        <mxCell id="r_tew_Cvf3GbZcf3USQw-85" value="" style="edgeStyle=orthogonalEdgeStyle;rounded=0;orthogonalLoop=1;jettySize=auto;html=1;" parent="WIyWlLk6GJQsqaUBKTNV-1" source="r_tew_Cvf3GbZcf3USQw-78" target="r_tew_Cvf3GbZcf3USQw-81" edge="1">
          <mxGeometry relative="1" as="geometry" />
        </mxCell>
        <mxCell id="r_tew_Cvf3GbZcf3USQw-104" value="Si" style="edgeLabel;html=1;align=center;verticalAlign=middle;resizable=0;points=[];" parent="r_tew_Cvf3GbZcf3USQw-85" vertex="1" connectable="0">
          <mxGeometry x="-0.0038" y="2" relative="1" as="geometry">
            <mxPoint as="offset" />
          </mxGeometry>
        </mxCell>
        <mxCell id="r_tew_Cvf3GbZcf3USQw-97" value="" style="edgeStyle=orthogonalEdgeStyle;rounded=0;orthogonalLoop=1;jettySize=auto;html=1;" parent="WIyWlLk6GJQsqaUBKTNV-1" source="r_tew_Cvf3GbZcf3USQw-78" target="r_tew_Cvf3GbZcf3USQw-96" edge="1">
          <mxGeometry relative="1" as="geometry" />
        </mxCell>
        <mxCell id="r_tew_Cvf3GbZcf3USQw-103" value="No" style="edgeLabel;html=1;align=center;verticalAlign=middle;resizable=0;points=[];" parent="r_tew_Cvf3GbZcf3USQw-97" vertex="1" connectable="0">
          <mxGeometry x="0.278" relative="1" as="geometry">
            <mxPoint as="offset" />
          </mxGeometry>
        </mxCell>
        <mxCell id="r_tew_Cvf3GbZcf3USQw-78" value="Si operador&amp;nbsp; = &quot;*&quot;" style="rhombus;whiteSpace=wrap;html=1;" parent="WIyWlLk6GJQsqaUBKTNV-1" vertex="1">
          <mxGeometry x="1286.25" y="1110" width="102.5" height="100" as="geometry" />
        </mxCell>
        <mxCell id="r_tew_Cvf3GbZcf3USQw-86" value="" style="edgeStyle=orthogonalEdgeStyle;rounded=0;orthogonalLoop=1;jettySize=auto;html=1;" parent="WIyWlLk6GJQsqaUBKTNV-1" source="r_tew_Cvf3GbZcf3USQw-81" target="r_tew_Cvf3GbZcf3USQw-84" edge="1">
          <mxGeometry relative="1" as="geometry" />
        </mxCell>
        <mxCell id="r_tew_Cvf3GbZcf3USQw-81" value="resultado = num1 * num2" style="rounded=0;whiteSpace=wrap;html=1;" parent="WIyWlLk6GJQsqaUBKTNV-1" vertex="1">
          <mxGeometry x="1430" y="1130" width="120" height="60" as="geometry" />
        </mxCell>
        <mxCell id="r_tew_Cvf3GbZcf3USQw-113" style="edgeStyle=orthogonalEdgeStyle;rounded=0;orthogonalLoop=1;jettySize=auto;html=1;entryX=1;entryY=0;entryDx=0;entryDy=0;" parent="WIyWlLk6GJQsqaUBKTNV-1" source="r_tew_Cvf3GbZcf3USQw-84" target="r_tew_Cvf3GbZcf3USQw-109" edge="1">
          <mxGeometry relative="1" as="geometry">
            <mxPoint x="1849.9999999999995" y="1500" as="targetPoint" />
            <Array as="points">
              <mxPoint x="1851" y="1160" />
              <mxPoint x="1851" y="1510" />
              <mxPoint x="1380" y="1510" />
            </Array>
          </mxGeometry>
        </mxCell>
        <mxCell id="r_tew_Cvf3GbZcf3USQw-84" value="El resultado de tu multiplicación es + resultado" style="shape=parallelogram;perimeter=parallelogramPerimeter;whiteSpace=wrap;html=1;fixedSize=1;" parent="WIyWlLk6GJQsqaUBKTNV-1" vertex="1">
          <mxGeometry x="1590" y="1130" width="220" height="60" as="geometry" />
        </mxCell>
        <mxCell id="r_tew_Cvf3GbZcf3USQw-99" value="" style="edgeStyle=orthogonalEdgeStyle;rounded=0;orthogonalLoop=1;jettySize=auto;html=1;" parent="WIyWlLk6GJQsqaUBKTNV-1" source="r_tew_Cvf3GbZcf3USQw-96" target="r_tew_Cvf3GbZcf3USQw-98" edge="1">
          <mxGeometry relative="1" as="geometry" />
        </mxCell>
        <mxCell id="r_tew_Cvf3GbZcf3USQw-102" value="Si" style="edgeLabel;html=1;align=center;verticalAlign=middle;resizable=0;points=[];" parent="r_tew_Cvf3GbZcf3USQw-99" vertex="1" connectable="0">
          <mxGeometry x="0.2342" relative="1" as="geometry">
            <mxPoint as="offset" />
          </mxGeometry>
        </mxCell>
        <mxCell id="r_tew_Cvf3GbZcf3USQw-106" value="" style="edgeStyle=orthogonalEdgeStyle;rounded=0;orthogonalLoop=1;jettySize=auto;html=1;" parent="WIyWlLk6GJQsqaUBKTNV-1" source="r_tew_Cvf3GbZcf3USQw-96" target="r_tew_Cvf3GbZcf3USQw-105" edge="1">
          <mxGeometry relative="1" as="geometry" />
        </mxCell>
        <mxCell id="r_tew_Cvf3GbZcf3USQw-107" value="No" style="edgeLabel;html=1;align=center;verticalAlign=middle;resizable=0;points=[];" parent="r_tew_Cvf3GbZcf3USQw-106" vertex="1" connectable="0">
          <mxGeometry x="-0.4598" relative="1" as="geometry">
            <mxPoint as="offset" />
          </mxGeometry>
        </mxCell>
        <mxCell id="r_tew_Cvf3GbZcf3USQw-96" value="numero2!=0" style="rhombus;whiteSpace=wrap;html=1;" parent="WIyWlLk6GJQsqaUBKTNV-1" vertex="1">
          <mxGeometry x="1269.5" y="1260" width="128" height="80" as="geometry" />
        </mxCell>
        <mxCell id="r_tew_Cvf3GbZcf3USQw-101" value="" style="edgeStyle=orthogonalEdgeStyle;rounded=0;orthogonalLoop=1;jettySize=auto;html=1;" parent="WIyWlLk6GJQsqaUBKTNV-1" source="r_tew_Cvf3GbZcf3USQw-98" target="r_tew_Cvf3GbZcf3USQw-100" edge="1">
          <mxGeometry relative="1" as="geometry" />
        </mxCell>
        <mxCell id="r_tew_Cvf3GbZcf3USQw-98" value="resultado = num1 / num2" style="rounded=0;whiteSpace=wrap;html=1;" parent="WIyWlLk6GJQsqaUBKTNV-1" vertex="1">
          <mxGeometry x="1420" y="1270" width="120" height="60" as="geometry" />
        </mxCell>
        <mxCell id="r_tew_Cvf3GbZcf3USQw-114" style="edgeStyle=orthogonalEdgeStyle;rounded=0;orthogonalLoop=1;jettySize=auto;html=1;entryX=1;entryY=0;entryDx=0;entryDy=0;" parent="WIyWlLk6GJQsqaUBKTNV-1" source="r_tew_Cvf3GbZcf3USQw-100" target="r_tew_Cvf3GbZcf3USQw-109" edge="1">
          <mxGeometry relative="1" as="geometry">
            <mxPoint x="1829.9999999999995" y="1480" as="targetPoint" />
            <Array as="points">
              <mxPoint x="1831" y="1300" />
              <mxPoint x="1831" y="1480" />
              <mxPoint x="1380" y="1480" />
            </Array>
          </mxGeometry>
        </mxCell>
        <mxCell id="r_tew_Cvf3GbZcf3USQw-100" value="El resultado de tu división es + resultado" style="shape=parallelogram;perimeter=parallelogramPerimeter;whiteSpace=wrap;html=1;fixedSize=1;" parent="WIyWlLk6GJQsqaUBKTNV-1" vertex="1">
          <mxGeometry x="1590" y="1270" width="220" height="60" as="geometry" />
        </mxCell>
        <mxCell id="r_tew_Cvf3GbZcf3USQw-110" value="" style="edgeStyle=orthogonalEdgeStyle;rounded=0;orthogonalLoop=1;jettySize=auto;html=1;" parent="WIyWlLk6GJQsqaUBKTNV-1" source="r_tew_Cvf3GbZcf3USQw-105" target="r_tew_Cvf3GbZcf3USQw-109" edge="1">
          <mxGeometry relative="1" as="geometry" />
        </mxCell>
        <mxCell id="r_tew_Cvf3GbZcf3USQw-115" style="edgeStyle=orthogonalEdgeStyle;rounded=0;orthogonalLoop=1;jettySize=auto;html=1;entryX=0;entryY=0.5;entryDx=0;entryDy=0;" parent="WIyWlLk6GJQsqaUBKTNV-1" source="r_tew_Cvf3GbZcf3USQw-105" target="r_tew_Cvf3GbZcf3USQw-109" edge="1">
          <mxGeometry relative="1" as="geometry">
            <mxPoint x="1140" y="1560" as="targetPoint" />
            <Array as="points">
              <mxPoint x="1141" y="1420" />
              <mxPoint x="1141" y="1530" />
            </Array>
          </mxGeometry>
        </mxCell>
        <mxCell id="r_tew_Cvf3GbZcf3USQw-105" value="No se puede dividir un numero entre cero" style="shape=parallelogram;perimeter=parallelogramPerimeter;whiteSpace=wrap;html=1;fixedSize=1;" parent="WIyWlLk6GJQsqaUBKTNV-1" vertex="1">
          <mxGeometry x="1214.75" y="1400" width="220" height="60" as="geometry" />
        </mxCell>
        <mxCell id="r_tew_Cvf3GbZcf3USQw-108" value="Fin" style="ellipse;whiteSpace=wrap;html=1;" parent="WIyWlLk6GJQsqaUBKTNV-1" vertex="1">
          <mxGeometry x="740" y="1050" width="120" height="40" as="geometry" />
        </mxCell>
        <mxCell id="r_tew_Cvf3GbZcf3USQw-109" value="Fin" style="ellipse;whiteSpace=wrap;html=1;" parent="WIyWlLk6GJQsqaUBKTNV-1" vertex="1">
          <mxGeometry x="1278" y="1510" width="120" height="40" as="geometry" />
        </mxCell>
        <mxCell id="r_tew_Cvf3GbZcf3USQw-118" value="Ejercicio 9: Calculadora de operaciones básicas&lt;div&gt;&lt;br&gt;&lt;/div&gt;&lt;div&gt;Una empresa paga a sus empleados además del sueldo base una bonificación especial de 80 dólares por cada hijo.&lt;/div&gt;&lt;div&gt;&lt;br&gt;&lt;/div&gt;&lt;div&gt;Realice un algoritmo que determine el monto de la bonificación y el monto total a pagar a trabajador&amp;nbsp;&lt;/div&gt;" style="rounded=0;whiteSpace=wrap;html=1;" parent="WIyWlLk6GJQsqaUBKTNV-1" vertex="1">
          <mxGeometry y="1160" width="290" height="130" as="geometry" />
        </mxCell>
        <mxCell id="r_tew_Cvf3GbZcf3USQw-121" value="" style="edgeStyle=orthogonalEdgeStyle;rounded=0;orthogonalLoop=1;jettySize=auto;html=1;" parent="WIyWlLk6GJQsqaUBKTNV-1" source="r_tew_Cvf3GbZcf3USQw-119" target="r_tew_Cvf3GbZcf3USQw-120" edge="1">
          <mxGeometry relative="1" as="geometry" />
        </mxCell>
        <mxCell id="r_tew_Cvf3GbZcf3USQw-119" value="Inicio" style="ellipse;whiteSpace=wrap;html=1;" parent="WIyWlLk6GJQsqaUBKTNV-1" vertex="1">
          <mxGeometry x="80" y="1350" width="120" height="40" as="geometry" />
        </mxCell>
        <mxCell id="r_tew_Cvf3GbZcf3USQw-123" value="" style="edgeStyle=orthogonalEdgeStyle;rounded=0;orthogonalLoop=1;jettySize=auto;html=1;" parent="WIyWlLk6GJQsqaUBKTNV-1" source="r_tew_Cvf3GbZcf3USQw-120" target="r_tew_Cvf3GbZcf3USQw-122" edge="1">
          <mxGeometry relative="1" as="geometry" />
        </mxCell>
        <mxCell id="r_tew_Cvf3GbZcf3USQw-120" value="Sueldo, bonificación = 80,&amp;nbsp; numHijos, montoBonificación, montoTotal" style="rounded=1;whiteSpace=wrap;html=1;fontSize=12;glass=0;strokeWidth=1;shadow=0;" parent="WIyWlLk6GJQsqaUBKTNV-1" vertex="1">
          <mxGeometry x="75" y="1420" width="130" height="70" as="geometry" />
        </mxCell>
        <mxCell id="r_tew_Cvf3GbZcf3USQw-125" value="" style="edgeStyle=orthogonalEdgeStyle;rounded=0;orthogonalLoop=1;jettySize=auto;html=1;" parent="WIyWlLk6GJQsqaUBKTNV-1" source="r_tew_Cvf3GbZcf3USQw-122" target="r_tew_Cvf3GbZcf3USQw-124" edge="1">
          <mxGeometry relative="1" as="geometry" />
        </mxCell>
        <mxCell id="r_tew_Cvf3GbZcf3USQw-122" value="Ingreso de sueldo, numHijos" style="shape=parallelogram;perimeter=parallelogramPerimeter;whiteSpace=wrap;html=1;fixedSize=1;" parent="WIyWlLk6GJQsqaUBKTNV-1" vertex="1">
          <mxGeometry x="49.5" y="1520" width="181" height="60" as="geometry" />
        </mxCell>
        <mxCell id="r_tew_Cvf3GbZcf3USQw-127" value="" style="edgeStyle=orthogonalEdgeStyle;rounded=0;orthogonalLoop=1;jettySize=auto;html=1;" parent="WIyWlLk6GJQsqaUBKTNV-1" source="r_tew_Cvf3GbZcf3USQw-124" target="r_tew_Cvf3GbZcf3USQw-126" edge="1">
          <mxGeometry relative="1" as="geometry" />
        </mxCell>
        <mxCell id="r_tew_Cvf3GbZcf3USQw-130" value="Si" style="edgeLabel;html=1;align=center;verticalAlign=middle;resizable=0;points=[];" parent="r_tew_Cvf3GbZcf3USQw-127" vertex="1" connectable="0">
          <mxGeometry x="-0.0834" y="3" relative="1" as="geometry">
            <mxPoint as="offset" />
          </mxGeometry>
        </mxCell>
        <mxCell id="r_tew_Cvf3GbZcf3USQw-132" value="" style="edgeStyle=orthogonalEdgeStyle;rounded=0;orthogonalLoop=1;jettySize=auto;html=1;" parent="WIyWlLk6GJQsqaUBKTNV-1" source="r_tew_Cvf3GbZcf3USQw-124" target="r_tew_Cvf3GbZcf3USQw-131" edge="1">
          <mxGeometry relative="1" as="geometry" />
        </mxCell>
        <mxCell id="r_tew_Cvf3GbZcf3USQw-133" value="No" style="edgeLabel;html=1;align=center;verticalAlign=middle;resizable=0;points=[];" parent="r_tew_Cvf3GbZcf3USQw-132" vertex="1" connectable="0">
          <mxGeometry x="0.204" y="-2" relative="1" as="geometry">
            <mxPoint as="offset" />
          </mxGeometry>
        </mxCell>
        <mxCell id="r_tew_Cvf3GbZcf3USQw-124" value="Si hijos&amp;gt;=1 &amp;amp;&amp;amp; hijos!=dedecimal &amp;amp;&amp;amp;hijos!=0" style="rhombus;whiteSpace=wrap;html=1;" parent="WIyWlLk6GJQsqaUBKTNV-1" vertex="1">
          <mxGeometry x="70" y="1620" width="140" height="130" as="geometry" />
        </mxCell>
        <mxCell id="r_tew_Cvf3GbZcf3USQw-129" value="" style="edgeStyle=orthogonalEdgeStyle;rounded=0;orthogonalLoop=1;jettySize=auto;html=1;" parent="WIyWlLk6GJQsqaUBKTNV-1" source="r_tew_Cvf3GbZcf3USQw-126" target="r_tew_Cvf3GbZcf3USQw-128" edge="1">
          <mxGeometry relative="1" as="geometry" />
        </mxCell>
        <mxCell id="r_tew_Cvf3GbZcf3USQw-135" value="" style="edgeStyle=orthogonalEdgeStyle;rounded=0;orthogonalLoop=1;jettySize=auto;html=1;" parent="WIyWlLk6GJQsqaUBKTNV-1" source="r_tew_Cvf3GbZcf3USQw-126" target="r_tew_Cvf3GbZcf3USQw-134" edge="1">
          <mxGeometry relative="1" as="geometry" />
        </mxCell>
        <mxCell id="r_tew_Cvf3GbZcf3USQw-126" value="montoBonificación+=numHijos" style="rounded=0;whiteSpace=wrap;html=1;" parent="WIyWlLk6GJQsqaUBKTNV-1" vertex="1">
          <mxGeometry x="260" y="1657.5" width="179" height="35" as="geometry" />
        </mxCell>
        <mxCell id="r_tew_Cvf3GbZcf3USQw-138" style="edgeStyle=orthogonalEdgeStyle;rounded=0;orthogonalLoop=1;jettySize=auto;html=1;entryX=1;entryY=0;entryDx=0;entryDy=0;" parent="WIyWlLk6GJQsqaUBKTNV-1" source="r_tew_Cvf3GbZcf3USQw-128" target="r_tew_Cvf3GbZcf3USQw-136" edge="1">
          <mxGeometry relative="1" as="geometry" />
        </mxCell>
        <mxCell id="r_tew_Cvf3GbZcf3USQw-128" value="El monto de la bonificación es + montoBonificación" style="shape=parallelogram;perimeter=parallelogramPerimeter;whiteSpace=wrap;html=1;fixedSize=1;" parent="WIyWlLk6GJQsqaUBKTNV-1" vertex="1">
          <mxGeometry x="234.5" y="1760" width="230" height="70" as="geometry" />
        </mxCell>
        <mxCell id="r_tew_Cvf3GbZcf3USQw-137" style="edgeStyle=orthogonalEdgeStyle;rounded=0;orthogonalLoop=1;jettySize=auto;html=1;entryX=0;entryY=0.5;entryDx=0;entryDy=0;" parent="WIyWlLk6GJQsqaUBKTNV-1" source="r_tew_Cvf3GbZcf3USQw-131" target="r_tew_Cvf3GbZcf3USQw-136" edge="1">
          <mxGeometry relative="1" as="geometry">
            <mxPoint x="-130" y="1920" as="targetPoint" />
            <Array as="points">
              <mxPoint x="-170" y="1880" />
              <mxPoint x="70" y="1880" />
            </Array>
          </mxGeometry>
        </mxCell>
        <mxCell id="r_tew_Cvf3GbZcf3USQw-131" value="Debe tener más de un hijo, el # de hijos debe ser entero y&amp;nbsp; no negativo" style="shape=parallelogram;perimeter=parallelogramPerimeter;whiteSpace=wrap;html=1;fixedSize=1;" parent="WIyWlLk6GJQsqaUBKTNV-1" vertex="1">
          <mxGeometry x="-280" y="1647.5" width="300" height="55" as="geometry" />
        </mxCell>
        <mxCell id="r_tew_Cvf3GbZcf3USQw-134" value="montoTotal = montoBonificación + Sueldo" style="rounded=0;whiteSpace=wrap;html=1;" parent="WIyWlLk6GJQsqaUBKTNV-1" vertex="1">
          <mxGeometry x="497.5" y="1657.5" width="179" height="35" as="geometry" />
        </mxCell>
        <mxCell id="r_tew_Cvf3GbZcf3USQw-136" value="Fin" style="ellipse;whiteSpace=wrap;html=1;" parent="WIyWlLk6GJQsqaUBKTNV-1" vertex="1">
          <mxGeometry x="70" y="1840" width="120" height="40" as="geometry" />
        </mxCell>
        <mxCell id="r_tew_Cvf3GbZcf3USQw-141" style="edgeStyle=orthogonalEdgeStyle;rounded=0;orthogonalLoop=1;jettySize=auto;html=1;" parent="WIyWlLk6GJQsqaUBKTNV-1" source="r_tew_Cvf3GbZcf3USQw-140" target="r_tew_Cvf3GbZcf3USQw-136" edge="1">
          <mxGeometry relative="1" as="geometry">
            <mxPoint x="590" y="1950" as="targetPoint" />
            <Array as="points">
              <mxPoint x="620" y="1950" />
              <mxPoint x="130" y="1950" />
            </Array>
          </mxGeometry>
        </mxCell>
        <mxCell id="r_tew_Cvf3GbZcf3USQw-140" value="El mono total a pagar del trabajador es: + montoTtal" style="shape=parallelogram;perimeter=parallelogramPerimeter;whiteSpace=wrap;html=1;fixedSize=1;" parent="WIyWlLk6GJQsqaUBKTNV-1" vertex="1">
          <mxGeometry x="475" y="1760" width="230" height="70" as="geometry" />
        </mxCell>
        <mxCell id="r_tew_Cvf3GbZcf3USQw-143" value="Ejercicio 10: En un centro de comunicaciones alquilan tarjetas para realizar llamadas y cobran el monto consumido de la tarjeta más un recargo del 20%&lt;div&gt;&lt;span style=&quot;background-color: initial;&quot;&gt;Teniendo como dato de entrada el monto inicial y el monto final final de la tarjeta, determine el costo de la llamada.&amp;nbsp;&lt;/span&gt;&lt;br&gt;&lt;/div&gt;" style="rounded=0;whiteSpace=wrap;html=1;" parent="WIyWlLk6GJQsqaUBKTNV-1" vertex="1">
          <mxGeometry x="1179.75" y="1630" width="290" height="130" as="geometry" />
        </mxCell>
        <mxCell id="r_tew_Cvf3GbZcf3USQw-147" value="" style="edgeStyle=orthogonalEdgeStyle;rounded=0;orthogonalLoop=1;jettySize=auto;html=1;" parent="WIyWlLk6GJQsqaUBKTNV-1" source="r_tew_Cvf3GbZcf3USQw-144" target="r_tew_Cvf3GbZcf3USQw-145" edge="1">
          <mxGeometry relative="1" as="geometry" />
        </mxCell>
        <mxCell id="r_tew_Cvf3GbZcf3USQw-144" value="Inicio" style="ellipse;whiteSpace=wrap;html=1;" parent="WIyWlLk6GJQsqaUBKTNV-1" vertex="1">
          <mxGeometry x="1264.75" y="1780" width="120" height="40" as="geometry" />
        </mxCell>
        <mxCell id="r_tew_Cvf3GbZcf3USQw-150" value="" style="edgeStyle=orthogonalEdgeStyle;rounded=0;orthogonalLoop=1;jettySize=auto;html=1;" parent="WIyWlLk6GJQsqaUBKTNV-1" source="r_tew_Cvf3GbZcf3USQw-145" target="r_tew_Cvf3GbZcf3USQw-149" edge="1">
          <mxGeometry relative="1" as="geometry" />
        </mxCell>
        <mxCell id="r_tew_Cvf3GbZcf3USQw-145" value="consumo, recargo = 0.2, montoInicial, montoF, costo" style="rounded=1;whiteSpace=wrap;html=1;fontSize=12;glass=0;strokeWidth=1;shadow=0;" parent="WIyWlLk6GJQsqaUBKTNV-1" vertex="1">
          <mxGeometry x="1234.75" y="1850" width="180" height="55" as="geometry" />
        </mxCell>
        <mxCell id="r_tew_Cvf3GbZcf3USQw-148" value="Costo que debo pagar = 2 + (2*recargo)" style="rounded=0;whiteSpace=wrap;html=1;" parent="WIyWlLk6GJQsqaUBKTNV-1" vertex="1">
          <mxGeometry x="1003" y="1810" width="120" height="60" as="geometry" />
        </mxCell>
        <mxCell id="r_tew_Cvf3GbZcf3USQw-152" value="" style="edgeStyle=orthogonalEdgeStyle;rounded=0;orthogonalLoop=1;jettySize=auto;html=1;" parent="WIyWlLk6GJQsqaUBKTNV-1" source="r_tew_Cvf3GbZcf3USQw-149" target="r_tew_Cvf3GbZcf3USQw-151" edge="1">
          <mxGeometry relative="1" as="geometry" />
        </mxCell>
        <mxCell id="r_tew_Cvf3GbZcf3USQw-149" value="Ingreso MontoInicial, MontoFinal" style="shape=parallelogram;perimeter=parallelogramPerimeter;whiteSpace=wrap;html=1;fixedSize=1;" parent="WIyWlLk6GJQsqaUBKTNV-1" vertex="1">
          <mxGeometry x="1213.5" y="1970" width="222.5" height="50" as="geometry" />
        </mxCell>
        <mxCell id="r_tew_Cvf3GbZcf3USQw-154" value="" style="edgeStyle=orthogonalEdgeStyle;rounded=0;orthogonalLoop=1;jettySize=auto;html=1;" parent="WIyWlLk6GJQsqaUBKTNV-1" source="r_tew_Cvf3GbZcf3USQw-151" target="r_tew_Cvf3GbZcf3USQw-153" edge="1">
          <mxGeometry relative="1" as="geometry" />
        </mxCell>
        <mxCell id="r_tew_Cvf3GbZcf3USQw-151" value="consumo = montoInicial - montoF" style="rounded=0;whiteSpace=wrap;html=1;" parent="WIyWlLk6GJQsqaUBKTNV-1" vertex="1">
          <mxGeometry x="1264.75" y="2080" width="120" height="60" as="geometry" />
        </mxCell>
        <mxCell id="r_tew_Cvf3GbZcf3USQw-156" value="" style="edgeStyle=orthogonalEdgeStyle;rounded=0;orthogonalLoop=1;jettySize=auto;html=1;" parent="WIyWlLk6GJQsqaUBKTNV-1" source="r_tew_Cvf3GbZcf3USQw-153" target="r_tew_Cvf3GbZcf3USQw-155" edge="1">
          <mxGeometry relative="1" as="geometry" />
        </mxCell>
        <mxCell id="r_tew_Cvf3GbZcf3USQw-153" value="costo = montoC + (consumo*recargo)" style="rounded=0;whiteSpace=wrap;html=1;" parent="WIyWlLk6GJQsqaUBKTNV-1" vertex="1">
          <mxGeometry x="1264.75" y="2190" width="120" height="60" as="geometry" />
        </mxCell>
        <mxCell id="r_tew_Cvf3GbZcf3USQw-159" value="" style="edgeStyle=orthogonalEdgeStyle;rounded=0;orthogonalLoop=1;jettySize=auto;html=1;" parent="WIyWlLk6GJQsqaUBKTNV-1" source="r_tew_Cvf3GbZcf3USQw-155" target="r_tew_Cvf3GbZcf3USQw-158" edge="1">
          <mxGeometry relative="1" as="geometry" />
        </mxCell>
        <mxCell id="r_tew_Cvf3GbZcf3USQw-155" value="Tu costo es: + costo" style="shape=parallelogram;perimeter=parallelogramPerimeter;whiteSpace=wrap;html=1;fixedSize=1;" parent="WIyWlLk6GJQsqaUBKTNV-1" vertex="1">
          <mxGeometry x="1254.25" y="2300" width="141" height="60" as="geometry" />
        </mxCell>
        <mxCell id="r_tew_Cvf3GbZcf3USQw-158" value="Fin" style="ellipse;whiteSpace=wrap;html=1;" parent="WIyWlLk6GJQsqaUBKTNV-1" vertex="1">
          <mxGeometry x="1264.75" y="2400" width="120" height="40" as="geometry" />
        </mxCell>
        <mxCell id="u67Y7Ix7UaVVkOzbMJXE-6" value="" style="edgeStyle=orthogonalEdgeStyle;rounded=0;orthogonalLoop=1;jettySize=auto;html=1;" edge="1" parent="WIyWlLk6GJQsqaUBKTNV-1" source="u67Y7Ix7UaVVkOzbMJXE-0" target="u67Y7Ix7UaVVkOzbMJXE-2">
          <mxGeometry relative="1" as="geometry" />
        </mxCell>
        <mxCell id="u67Y7Ix7UaVVkOzbMJXE-0" value="&#xa;&lt;strong style=&quot;box-sizing: border-box; font-weight: bolder; color: rgb(82, 96, 105); font-family: &amp;quot;Open Sans&amp;quot;, sans-serif; font-size: 14px; font-style: normal; font-variant-ligatures: normal; font-variant-caps: normal; letter-spacing: normal; orphans: 2; text-align: left; text-indent: 0px; text-transform: none; widows: 2; word-spacing: 0px; -webkit-text-stroke-width: 0px; white-space: normal; background-color: rgb(255, 255, 255); text-decoration-thickness: initial; text-decoration-style: initial; text-decoration-color: initial;&quot; id=&quot;yui_3_17_2_1_1727465194171_48&quot;&gt;Ejercicio 2: Número par o impar.&amp;nbsp;&lt;/strong&gt;&lt;span style=&quot;color: rgb(82, 96, 105); font-family: &amp;quot;Open Sans&amp;quot;, sans-serif; font-size: 14px; font-style: normal; font-variant-ligatures: normal; font-variant-caps: normal; font-weight: 400; letter-spacing: normal; orphans: 2; text-align: left; text-indent: 0px; text-transform: none; widows: 2; word-spacing: 0px; -webkit-text-stroke-width: 0px; white-space: normal; background-color: rgb(255, 255, 255); text-decoration-thickness: initial; text-decoration-style: initial; text-decoration-color: initial; display: inline !important; float: none;&quot;&gt;Crear un programa que determine si un número ingresado por el usuario es par&amp;nbsp;o impar.&lt;/span&gt;&#xa;&#xa;" style="rounded=1;whiteSpace=wrap;html=1;" vertex="1" parent="WIyWlLk6GJQsqaUBKTNV-1">
          <mxGeometry x="-20" y="2830" width="185" as="geometry" />
        </mxCell>
        <mxCell id="u67Y7Ix7UaVVkOzbMJXE-2" value="&lt;div style=&quot;text-align: left;&quot;&gt;INICIO&lt;/div&gt;&lt;div&gt;//Declarar variables para la base, altura y área del triángulo&amp;nbsp;&lt;/div&gt;&lt;div&gt;&lt;br&gt;&lt;/div&gt;&lt;div style=&quot;text-align: left;&quot;&gt;DECLARAR base,altura, area COMO NUMERICOS&lt;/div&gt;&lt;div style=&quot;text-align: left;&quot;&gt;&lt;br&gt;&lt;/div&gt;&lt;div style=&quot;text-align: left;&quot;&gt;//Pedir al usuario que ingrese la base del triángulo&lt;/div&gt;&lt;div&gt;&lt;br&gt;&lt;/div&gt;&lt;div style=&quot;text-align: left;&quot;&gt;ESCRIBIR &quot;Ingrese la base del triángulo&quot;&lt;/div&gt;&lt;div style=&quot;text-align: left;&quot;&gt;LEER BASE&lt;/div&gt;&lt;div style=&quot;text-align: left;&quot;&gt;&lt;br&gt;&lt;/div&gt;&lt;div&gt;&lt;div style=&quot;text-align: left;&quot;&gt;//Pedir al usuario que ingrese la base del triángulo&lt;/div&gt;&lt;div style=&quot;text-align: left;&quot;&gt;&lt;br&gt;&lt;/div&gt;&lt;div style=&quot;text-align: left;&quot;&gt;ESCRIBIR &quot;Ingrese la altura del triángulo&quot;&lt;/div&gt;&lt;div style=&quot;text-align: left;&quot;&gt;LEER altura&lt;/div&gt;&lt;/div&gt;&lt;div style=&quot;text-align: left;&quot;&gt;&lt;br&gt;&lt;/div&gt;&lt;div&gt;&lt;br&gt;&lt;/div&gt;&lt;div style=&quot;text-align: left;&quot;&gt;//Calcular el área del triángulo usando la fórmula: (base * altura)/2&lt;/div&gt;&lt;div style=&quot;text-align: left;&quot;&gt;area &amp;lt;- (base * altura) / 2&lt;/div&gt;&lt;div&gt;&lt;br&gt;&lt;/div&gt;&lt;div style=&quot;text-align: left;&quot;&gt;//Mostrar el resultado del área&lt;/div&gt;&lt;div style=&quot;text-align: left;&quot;&gt;ESCRIBIR &quot;El área del triángulo es&quot; + area&lt;/div&gt;&lt;div&gt;&lt;br&gt;&lt;/div&gt;&lt;div&gt;&lt;br&gt;&lt;/div&gt;&lt;div style=&quot;text-align: left;&quot;&gt;FIN&lt;/div&gt;" style="text;strokeColor=none;align=center;fillColor=none;html=1;verticalAlign=middle;whiteSpace=wrap;rounded=0;" vertex="1" parent="WIyWlLk6GJQsqaUBKTNV-1">
          <mxGeometry x="-40" y="2898" width="372" height="388" as="geometry" />
        </mxCell>
        <mxCell id="u67Y7Ix7UaVVkOzbMJXE-3" value="&lt;b&gt;Pseudo código:&lt;/b&gt;" style="rounded=0;whiteSpace=wrap;html=1;" vertex="1" parent="WIyWlLk6GJQsqaUBKTNV-1">
          <mxGeometry y="2680" width="120" height="60" as="geometry" />
        </mxCell>
        <mxCell id="u67Y7Ix7UaVVkOzbMJXE-4" value="Algoritmo numero_par_impar&#xa;    &#xa;    Definir numero Como Entero; &#xa;    &#xa;    Escribir &quot;Ingresa un número&quot;;&#xa;    Leer numero;&#xa;    &#xa;        Si numero%2==0 Entonces&#xa;            Escribir &quot;Tu numero es par&quot;;&#xa;        SiNo&#xa;            Escribir &quot;Tu número es impar&quot;;&#xa;        Fin Si&#xa;    &#xa;FinAlgoritmo" style="text;whiteSpace=wrap;" vertex="1" parent="WIyWlLk6GJQsqaUBKTNV-1">
          <mxGeometry x="380.5" y="2946" width="310" height="340" as="geometry" />
        </mxCell>
        <mxCell id="u67Y7Ix7UaVVkOzbMJXE-8" value="" style="edgeStyle=orthogonalEdgeStyle;rounded=0;orthogonalLoop=1;jettySize=auto;html=1;" edge="1" parent="WIyWlLk6GJQsqaUBKTNV-1" source="u67Y7Ix7UaVVkOzbMJXE-7" target="u67Y7Ix7UaVVkOzbMJXE-4">
          <mxGeometry relative="1" as="geometry" />
        </mxCell>
        <mxCell id="u67Y7Ix7UaVVkOzbMJXE-7" value="&lt;strong id=&quot;yui_3_17_2_1_1727465194171_48&quot; style=&quot;box-sizing: border-box; font-weight: bolder; color: rgb(82, 96, 105); font-family: &amp;quot;Open Sans&amp;quot;, sans-serif; font-size: 14px; font-style: normal; font-variant-ligatures: normal; font-variant-caps: normal; letter-spacing: normal; orphans: 2; text-align: left; text-indent: 0px; text-transform: none; widows: 2; word-spacing: 0px; -webkit-text-stroke-width: 0px; white-space: normal; background-color: rgb(255, 255, 255); text-decoration-thickness: initial; text-decoration-style: initial; text-decoration-color: initial;&quot;&gt;Ejercicio 2: Número par o impar.&amp;nbsp;&lt;/strong&gt;&lt;span style=&quot;color: rgb(82, 96, 105); font-family: &amp;quot;Open Sans&amp;quot;, sans-serif; font-size: 14px; font-style: normal; font-variant-ligatures: normal; font-variant-caps: normal; font-weight: 400; letter-spacing: normal; orphans: 2; text-align: left; text-indent: 0px; text-transform: none; widows: 2; word-spacing: 0px; -webkit-text-stroke-width: 0px; white-space: normal; background-color: rgb(255, 255, 255); text-decoration-thickness: initial; text-decoration-style: initial; text-decoration-color: initial; display: inline !important; float: none;&quot;&gt;Crear un programa que determine si un número ingresado por el usuario es par&amp;nbsp;o impar.&lt;/span&gt;" style="text;whiteSpace=wrap;html=1;" vertex="1" parent="WIyWlLk6GJQsqaUBKTNV-1">
          <mxGeometry x="405.5" y="2800" width="260" height="60" as="geometry" />
        </mxCell>
        <mxCell id="u67Y7Ix7UaVVkOzbMJXE-9" value="Algoritmo numero_positivos&#xa;    definir numero Como Entero;&#xa;    Escribir &quot;Ingresa un numero&quot;;&#xa;    Leer numero;&#xa;    Si numero&gt;=0 Entonces&#xa;        Si numero==0 Entonces&#xa;            Escribir &quot;El numero es cero&quot;;&#xa;        SiNo&#xa;            Escribir &quot;El numero es Positivo&quot;;&#xa;        Fin Si&#xa;    SiNo&#xa;        Escribir &quot;El numero es Negativo&quot;;&#xa;    Fin Si&#xa;&#xa;&#xa;    &#xa;FinAlgoritmo" style="text;whiteSpace=wrap;" vertex="1" parent="WIyWlLk6GJQsqaUBKTNV-1">
          <mxGeometry x="807.5" y="2957" width="240" height="270" as="geometry" />
        </mxCell>
        <mxCell id="u67Y7Ix7UaVVkOzbMJXE-11" value="" style="edgeStyle=orthogonalEdgeStyle;rounded=0;orthogonalLoop=1;jettySize=auto;html=1;" edge="1" parent="WIyWlLk6GJQsqaUBKTNV-1" source="u67Y7Ix7UaVVkOzbMJXE-10" target="u67Y7Ix7UaVVkOzbMJXE-9">
          <mxGeometry relative="1" as="geometry" />
        </mxCell>
        <mxCell id="u67Y7Ix7UaVVkOzbMJXE-10" value="&lt;p id=&quot;yui_3_17_2_1_1727465194171_49&quot; style=&quot;box-sizing: border-box; margin-top: 0px; margin-bottom: 1rem; color: rgb(82, 96, 105); font-family: &amp;quot;Open Sans&amp;quot;, sans-serif; font-size: 14px; font-style: normal; font-variant-ligatures: normal; font-variant-caps: normal; font-weight: 400; letter-spacing: normal; orphans: 2; text-align: left; text-indent: 0px; text-transform: none; widows: 2; word-spacing: 0px; -webkit-text-stroke-width: 0px; white-space: normal; background-color: rgb(255, 255, 255); text-decoration-thickness: initial; text-decoration-style: initial; text-decoration-color: initial;&quot;&gt;&lt;strong style=&quot;box-sizing: border-box; font-weight: bolder;&quot;&gt;Ejercicio 3: Números positivos, negativos o cero.&amp;nbsp;&lt;/strong&gt;Cree un programa que determine si un número ingresado por el usuario es&lt;/p&gt;&lt;p style=&quot;box-sizing: border-box; margin-top: 0px; margin-bottom: 1rem; color: rgb(82, 96, 105); font-family: &amp;quot;Open Sans&amp;quot;, sans-serif; font-size: 14px; font-style: normal; font-variant-ligatures: normal; font-variant-caps: normal; font-weight: 400; letter-spacing: normal; orphans: 2; text-align: left; text-indent: 0px; text-transform: none; widows: 2; word-spacing: 0px; -webkit-text-stroke-width: 0px; white-space: normal; background-color: rgb(255, 255, 255); text-decoration-thickness: initial; text-decoration-style: initial; text-decoration-color: initial;&quot;&gt;positivo, negativo o cero.&lt;/p&gt;" style="text;whiteSpace=wrap;html=1;" vertex="1" parent="WIyWlLk6GJQsqaUBKTNV-1">
          <mxGeometry x="727.5" y="2788" width="405" height="110" as="geometry" />
        </mxCell>
        <mxCell id="u67Y7Ix7UaVVkOzbMJXE-12" value="numero 1, numero 2,&amp;nbsp;" style="rounded=1;whiteSpace=wrap;html=1;fontSize=12;glass=0;strokeWidth=1;shadow=0;" vertex="1" parent="WIyWlLk6GJQsqaUBKTNV-1">
          <mxGeometry x="630" y="-130" width="120" height="50" as="geometry" />
        </mxCell>
        <mxCell id="u67Y7Ix7UaVVkOzbMJXE-13" value="Ingreso de numero 1, ingreso de numero 2" style="shape=parallelogram;perimeter=parallelogramPerimeter;whiteSpace=wrap;html=1;fixedSize=1;" vertex="1" parent="WIyWlLk6GJQsqaUBKTNV-1">
          <mxGeometry x="595" y="-60" width="190" height="50" as="geometry" />
        </mxCell>
        <mxCell id="u67Y7Ix7UaVVkOzbMJXE-17" value="" style="edgeStyle=orthogonalEdgeStyle;rounded=0;orthogonalLoop=1;jettySize=auto;html=1;" edge="1" parent="WIyWlLk6GJQsqaUBKTNV-1" source="u67Y7Ix7UaVVkOzbMJXE-15" target="592Dz0RFdlBVI4-PYO10-64">
          <mxGeometry relative="1" as="geometry" />
        </mxCell>
        <mxCell id="u67Y7Ix7UaVVkOzbMJXE-15" value="Ingreso de numero&amp;nbsp;" style="shape=parallelogram;perimeter=parallelogramPerimeter;whiteSpace=wrap;html=1;fixedSize=1;" vertex="1" parent="WIyWlLk6GJQsqaUBKTNV-1">
          <mxGeometry x="86" y="-50" width="190" height="50" as="geometry" />
        </mxCell>
        <mxCell id="u67Y7Ix7UaVVkOzbMJXE-24" value="" style="edgeStyle=orthogonalEdgeStyle;rounded=0;orthogonalLoop=1;jettySize=auto;html=1;" edge="1" parent="WIyWlLk6GJQsqaUBKTNV-1" source="u67Y7Ix7UaVVkOzbMJXE-19" target="u67Y7Ix7UaVVkOzbMJXE-20">
          <mxGeometry relative="1" as="geometry" />
        </mxCell>
        <mxCell id="u67Y7Ix7UaVVkOzbMJXE-19" value="&lt;strong style=&quot;box-sizing: border-box; font-weight: bolder; color: rgb(82, 96, 105); font-family: &amp;quot;Open Sans&amp;quot;, sans-serif; font-size: 14px; font-style: normal; font-variant-ligatures: normal; font-variant-caps: normal; letter-spacing: normal; orphans: 2; text-align: left; text-indent: 0px; text-transform: none; widows: 2; word-spacing: 0px; -webkit-text-stroke-width: 0px; white-space: normal; background-color: rgb(255, 255, 255); text-decoration-thickness: initial; text-decoration-style: initial; text-decoration-color: initial;&quot;&gt;Ejercicio 4:&amp;nbsp;&lt;/strong&gt;&lt;span style=&quot;color: rgb(82, 96, 105); font-family: &amp;quot;Open Sans&amp;quot;, sans-serif; font-size: 14px; font-style: normal; font-variant-ligatures: normal; font-variant-caps: normal; font-weight: 400; letter-spacing: normal; orphans: 2; text-align: left; text-indent: 0px; text-transform: none; widows: 2; word-spacing: 0px; -webkit-text-stroke-width: 0px; white-space: normal; background-color: rgb(255, 255, 255); text-decoration-thickness: initial; text-decoration-style: initial; text-decoration-color: initial; display: inline !important; float: none;&quot;&gt;Desarrolle un algoritmo que permita leer dos valores distintos,&lt;/span&gt;&lt;strong style=&quot;box-sizing: border-box; font-weight: bolder; color: rgb(82, 96, 105); font-family: &amp;quot;Open Sans&amp;quot;, sans-serif; font-size: 14px; font-style: normal; font-variant-ligatures: normal; font-variant-caps: normal; letter-spacing: normal; orphans: 2; text-align: left; text-indent: 0px; text-transform: none; widows: 2; word-spacing: 0px; -webkit-text-stroke-width: 0px; white-space: normal; background-color: rgb(255, 255, 255); text-decoration-thickness: initial; text-decoration-style: initial; text-decoration-color: initial;&quot;&gt;&amp;nbsp;&lt;/strong&gt;&lt;span style=&quot;color: rgb(82, 96, 105); font-family: &amp;quot;Open Sans&amp;quot;, sans-serif; font-size: 14px; font-style: normal; font-variant-ligatures: normal; font-variant-caps: normal; font-weight: 400; letter-spacing: normal; orphans: 2; text-align: left; text-indent: 0px; text-transform: none; widows: 2; word-spacing: 0px; -webkit-text-stroke-width: 0px; white-space: normal; background-color: rgb(255, 255, 255); text-decoration-thickness: initial; text-decoration-style: initial; text-decoration-color: initial; display: inline !important; float: none;&quot;&gt;determinar cuál de los dos valores es el mayor y escribirlo.&lt;/span&gt;" style="text;whiteSpace=wrap;html=1;" vertex="1" parent="WIyWlLk6GJQsqaUBKTNV-1">
          <mxGeometry x="-40" y="3286" width="380" height="60" as="geometry" />
        </mxCell>
        <mxCell id="u67Y7Ix7UaVVkOzbMJXE-20" value="Algoritmo numero_mayor&#xa;    definir numero1 Como Entero;&#xa;    definir numero2 Como Entero;&#xa;    &#xa;    Escribir  &quot;Ingresa el número 1&quot;;&#xa;    leer numero1;&#xa;    &#xa;    Escribir &quot;Ingresa el número 2&quot;;&#xa;    Leer numero2;&#xa;    &#xa;    Si numero1&lt;&gt;numero2 Entonces&#xa;        Si numero1 &gt; numero2  Entonces&#xa;            Escribir &quot;El número 1 es mayor&quot;; &#xa;        SiNo&#xa;            Escribir &quot;El número 2 es mayor&quot;;&#xa;        Fin Si&#xa;    SiNo&#xa;        Escribir &quot;Los números son iguales&quot;;&#xa;    Fin Si&#xa;    &#xa;FinAlgoritmo" style="text;whiteSpace=wrap;" vertex="1" parent="WIyWlLk6GJQsqaUBKTNV-1">
          <mxGeometry x="26" y="3440" width="250" height="330" as="geometry" />
        </mxCell>
        <mxCell id="u67Y7Ix7UaVVkOzbMJXE-21" value="Algoritmo diferencia_valores&#xa;    DEfinir A Como Entero;&#xa;    DEfinir B Como Entero;&#xa;    Definir C Como Entero;&#xa;    Escribir &quot;Ingresa el numero A&quot;;&#xa;    Leer A;&#xa;    Escribir &quot;Ingresa el numero B&quot;;&#xa;    Leer B;&#xa;    Escribir &quot;Ingresa el numero C&quot;;&#xa;    Leer C;&#xa;    &#xa;    Si A&lt;&gt;B &amp;B&lt;&gt;C &amp; A&lt;&gt;C Entonces&#xa;        Si A&gt;B&amp; A&gt;C Entonces&#xa;            Escribir &quot;A es mayor&quot;;&#xa;        SiNo&#xa;            Si B&gt;C Entonces&#xa;                Escribir &quot;B es mayor&quot;;&#xa;            SiNo&#xa;                Escribir &quot;C es mayor&quot;;&#xa;            Fin Si&#xa;        Fin Si&#xa;    SiNo&#xa;        Escribir&quot;Los numero son diferentes&quot;;&#xa;    Fin Si&#xa;    &#xa;    Si A&lt;&gt;B &amp;B&lt;&gt;C &amp; A&lt;&gt;C Entonces&#xa;        Si A&lt;B&amp; A&lt;C Entonces&#xa;            Escribir &quot;A es menor&quot;;&#xa;        SiNo&#xa;            Si B&lt;C Entonces&#xa;                Escribir &quot;B es menor&quot;;&#xa;            SiNo&#xa;                Escribir &quot;C es menor&quot;;&#xa;            Fin Si&#xa;        Fin Si&#xa;    SiNo&#xa;    Fin Si&#xa;    &#xa;    &#xa;FinAlgoritmo" style="text;whiteSpace=wrap;" vertex="1" parent="WIyWlLk6GJQsqaUBKTNV-1">
          <mxGeometry x="497.5" y="3410" width="250" height="600" as="geometry" />
        </mxCell>
        <mxCell id="u67Y7Ix7UaVVkOzbMJXE-25" value="" style="edgeStyle=orthogonalEdgeStyle;rounded=0;orthogonalLoop=1;jettySize=auto;html=1;" edge="1" parent="WIyWlLk6GJQsqaUBKTNV-1" source="u67Y7Ix7UaVVkOzbMJXE-22" target="u67Y7Ix7UaVVkOzbMJXE-21">
          <mxGeometry relative="1" as="geometry" />
        </mxCell>
        <mxCell id="u67Y7Ix7UaVVkOzbMJXE-22" value="&lt;strong style=&quot;box-sizing: border-box; font-weight: bolder; color: rgb(82, 96, 105); font-family: &amp;quot;Open Sans&amp;quot;, sans-serif; font-size: 14px; font-style: normal; font-variant-ligatures: normal; font-variant-caps: normal; letter-spacing: normal; orphans: 2; text-align: left; text-indent: 0px; text-transform: none; widows: 2; word-spacing: 0px; -webkit-text-stroke-width: 0px; white-space: normal; background-color: rgb(255, 255, 255); text-decoration-thickness: initial; text-decoration-style: initial; text-decoration-color: initial;&quot;&gt;Ejercicio 5:&lt;/strong&gt;&lt;span style=&quot;color: rgb(82, 96, 105); font-family: &amp;quot;Open Sans&amp;quot;, sans-serif; font-size: 14px; font-style: normal; font-variant-ligatures: normal; font-variant-caps: normal; font-weight: 400; letter-spacing: normal; orphans: 2; text-align: left; text-indent: 0px; text-transform: none; widows: 2; word-spacing: 0px; -webkit-text-stroke-width: 0px; white-space: normal; background-color: rgb(255, 255, 255); text-decoration-thickness: initial; text-decoration-style: initial; text-decoration-color: initial; display: inline !important; float: none;&quot;&gt;&amp;nbsp;Desarrolle un algoritmo que permita leer tres valores y almacenarlos&amp;nbsp;en las variables A, B y C respectivamente. El algoritmo debe imprimir cual es el&amp;nbsp;mayor y cuál es el menor. Recuerde constatar que los tres valores introducidos por&amp;nbsp;el teclado sean valores distintos. Presente un mensaje de alerta en caso de que se&amp;nbsp;detecte la introducción de valores iguales.&lt;/span&gt;" style="text;whiteSpace=wrap;html=1;" vertex="1" parent="WIyWlLk6GJQsqaUBKTNV-1">
          <mxGeometry x="430" y="3210" width="380" height="120" as="geometry" />
        </mxCell>
        <mxCell id="u67Y7Ix7UaVVkOzbMJXE-26" value="&lt;strong style=&quot;box-sizing: border-box; font-weight: bolder; color: rgb(82, 96, 105); font-family: &amp;quot;Open Sans&amp;quot;, sans-serif; font-size: 14px; font-style: normal; font-variant-ligatures: normal; font-variant-caps: normal; letter-spacing: normal; orphans: 2; text-align: left; text-indent: 0px; text-transform: none; widows: 2; word-spacing: 0px; -webkit-text-stroke-width: 0px; white-space: normal; background-color: rgb(255, 255, 255); text-decoration-thickness: initial; text-decoration-style: initial; text-decoration-color: initial;&quot;&gt;Ejercicio 6: Conversor de dólares a euros.&amp;nbsp;&lt;/strong&gt;&lt;span style=&quot;color: rgb(82, 96, 105); font-family: &amp;quot;Open Sans&amp;quot;, sans-serif; font-size: 14px; font-style: normal; font-variant-ligatures: normal; font-variant-caps: normal; font-weight: 400; letter-spacing: normal; orphans: 2; text-align: left; text-indent: 0px; text-transform: none; widows: 2; word-spacing: 0px; -webkit-text-stroke-width: 0px; white-space: normal; background-color: rgb(255, 255, 255); text-decoration-thickness: initial; text-decoration-style: initial; text-decoration-color: initial; display: inline !important; float: none;&quot;&gt;Escribe un programa que convierta una cantidad de dinero en dólares a euros&amp;nbsp;utilizando una tasa de cambio fija.&lt;/span&gt;" style="text;whiteSpace=wrap;html=1;" vertex="1" parent="WIyWlLk6GJQsqaUBKTNV-1">
          <mxGeometry x="11" y="4030" width="320" height="100" as="geometry" />
        </mxCell>
        <mxCell id="u67Y7Ix7UaVVkOzbMJXE-27" value="Algoritmo dólares_Euros&#xa;    &#xa;    Definir num_Dolares Como Real;&#xa;    Definir Euros Como Real;&#xa;    &#xa;    Escribir &quot;Ingresa tu número de dólares para ser convertido en Euros&quot;;&#xa;    leer num_Dolares;&#xa;    &#xa;    Si num_Dolares &gt;= 0 Entonces&#xa;        Euros = num_Dolares * 0.8984;&#xa;        Escribir &quot;Tu cantidad de Euros es: &quot;,  Euros;&#xa;    SiNo&#xa;        Escribir &quot;La cantidad debe ser positiva&quot;;&#xa;    Fin Si&#xa;&#xa;&#xa;FinAlgoritmo" style="text;whiteSpace=wrap;" vertex="1" parent="WIyWlLk6GJQsqaUBKTNV-1">
          <mxGeometry y="4150" width="420" height="270" as="geometry" />
        </mxCell>
      </root>
    </mxGraphModel>
  </diagram>
</mxfile>
